<svg width="500" height="500" viewBox="0 0 500 500" fill="none" xmlns="http://www.w3.org/2000/svg">
<path d="M449.978 249.045C452.129 220.464 445.481 190.625 436.575 164.066C423.398 124.524 397.667 84.0037 354.425 74.6453C329.491 69.2669 304.116 75.0325 282.731 88.543C262.175 101.537 246.158 118.329 220.869 121.577C195.3 124.869 169.065 123.546 143.367 123.546C77.2879 123.546 23.6654 192.959 37.0683 265.266C50.4712 337.573 113.678 387.71 167.3 387.71C215.491 387.71 255.14 358.807 300.91 351.04C323.607 347.19 346.401 351.75 368.861 345.985C394.968 339.273 419.514 323.277 433.982 300.118C443.836 284.327 448.633 266.933 449.978 249.045Z" fill="#165DEE"/>
<path opacity="0.7" d="M449.978 249.045C452.129 220.464 445.481 190.625 436.575 164.066C423.398 124.524 397.667 84.0037 354.425 74.6453C329.491 69.2669 304.116 75.0325 282.731 88.543C262.175 101.537 246.158 118.329 220.869 121.577C195.3 124.869 169.065 123.546 143.367 123.546C77.2879 123.546 23.6654 192.959 37.0683 265.266C50.4712 337.573 113.678 387.71 167.3 387.71C215.491 387.71 255.14 358.807 300.91 351.04C323.607 347.19 346.401 351.75 368.861 345.985C394.968 339.273 419.514 323.277 433.982 300.118C443.836 284.327 448.633 266.933 449.978 249.045Z" fill="white"/>
<path d="M442.244 239.009C442.244 239.009 442.244 233.63 434.714 226.176C427.184 218.721 422.408 214.397 422.408 214.397C422.408 214.397 418.665 226.703 425.635 234.2C430.752 239.466 436.301 244.295 442.222 248.636L442.244 239.009Z" fill="#92E3A9"/>
<path d="M431.381 272.419C431.381 272.419 431.381 267.041 423.851 259.586C416.321 252.132 411.567 247.808 411.567 247.808C411.567 247.808 407.813 260.113 414.794 267.611C419.911 272.877 425.459 277.705 431.381 282.047V272.419Z" fill="#92E3A9"/>
<path d="M441.771 248.12C441.771 248.12 442.341 242.806 450.581 236.147C458.82 229.489 464.059 225.746 464.059 225.746C464.059 225.746 466.479 238.374 458.777 245.108C453.133 249.805 447.106 254.022 440.76 257.715L441.771 248.12Z" fill="#92E3A9"/>
<path d="M428.645 287.575C428.645 287.575 429.721 282.348 438.66 276.593C447.599 270.838 453.149 267.665 453.149 267.665C453.149 267.665 454.225 280.487 445.867 286.349C439.76 290.428 433.323 293.99 426.623 296.998L428.645 287.575Z" fill="#92E3A9"/>
<path d="M431.109 330.603C431.109 330.603 431.109 325.224 438.639 317.759C446.169 310.294 450.934 305.991 450.934 305.991C450.934 305.991 454.688 318.297 447.707 325.784C442.592 331.055 437.044 335.887 431.12 340.23L431.109 330.603Z" fill="#92E3A9"/>
<path d="M430.992 341.101C430.992 341.101 431.745 335.809 425.399 327.333C419.052 318.856 414.889 313.93 414.889 313.93C414.889 313.93 409.436 325.579 415.255 333.98C419.569 339.922 424.372 345.492 429.615 350.632L430.992 341.101Z" fill="#92E3A9"/>
<path d="M423.604 372.221C423.604 372.221 423.604 366.842 431.133 359.388C438.663 351.933 443.439 347.609 443.439 347.609C443.439 347.609 447.182 359.915 440.212 367.412C435.094 372.68 429.545 377.512 423.625 381.859L423.604 372.221Z" fill="#92E3A9"/>
<path d="M428.603 400.436C428.603 400.436 427.247 395.262 432.593 386.118C437.94 376.975 441.522 371.618 441.522 371.618C441.522 371.618 448.255 382.569 443.425 391.583C439.812 397.973 435.671 404.051 431.044 409.751L428.603 400.436Z" fill="#92E3A9"/>
<path d="M442.923 237.643C442.546 243.212 441.864 248.757 440.879 254.251C437.91 269.547 430.509 279.422 427.551 293.234C424.593 307.045 433.091 324.848 430.778 342.596C428.465 360.345 421.603 370.209 423.571 382.052C425.54 393.895 435.909 425.972 435.909 425.972" stroke="#263238" stroke-linecap="round" stroke-linejoin="round"/>
<path d="M441.707 251.68L449.775 245.484" stroke="#263238" stroke-linecap="round" stroke-linejoin="round"/>
<path d="M442.082 244.548L438.693 238.535" stroke="#263238" stroke-linecap="round" stroke-linejoin="round"/>
<path d="M428.002 292.599C428.002 292.599 434.757 287.532 441.706 282.466" stroke="#263238" stroke-linecap="round" stroke-linejoin="round"/>
<path d="M431.379 282.047C431.379 282.047 425.742 271.01 419.363 263.695" stroke="#263238" stroke-linecap="round" stroke-linejoin="round"/>
<path d="M431.379 338.218C435.232 331.097 440.103 324.574 445.836 318.856" stroke="#263238" stroke-linecap="round" stroke-linejoin="round"/>
<path d="M430.067 345.727C428.017 340.898 425.567 336.249 422.741 331.829C418.804 326.009 418.234 325.256 418.234 325.256" stroke="#263238" stroke-linecap="round" stroke-linejoin="round"/>
<path d="M423.604 382.052C425.319 377.812 427.354 373.709 429.692 369.779C432.031 366.125 434.669 362.671 437.577 359.452" stroke="#263238" stroke-linecap="round" stroke-linejoin="round"/>
<path d="M431.046 409.751C430.654 405.697 431.352 401.612 433.068 397.918C435.886 392.476 439.07 385.344 440.383 382.526" stroke="#263238" stroke-linecap="round" stroke-linejoin="round"/>
<path d="M381.123 310.487C381.123 310.487 380.542 307.131 384.425 301.613C388.308 296.095 390.879 292.9 390.879 292.9C390.879 292.9 394.558 300.215 391.008 305.658C388.372 309.518 385.418 313.152 382.177 316.522L381.123 310.487Z" fill="#92E3A9"/>
<path d="M391.57 330.258C391.57 330.258 390.989 326.902 394.872 321.384C398.755 315.866 401.326 312.671 401.326 312.671C401.326 312.671 405.005 319.986 401.455 325.439C398.817 329.295 395.863 332.926 392.624 336.293L391.57 330.258Z" fill="#92E3A9"/>
<path d="M382.404 316.146C382.404 316.146 381.478 312.918 375.584 309.595C369.689 306.271 366.01 304.528 366.01 304.528C366.01 304.528 365.86 312.714 371.389 316.092C375.437 318.422 379.671 320.412 384.049 322.04L382.404 316.146Z" fill="#92E3A9"/>
<path d="M394.924 339.466C394.924 339.466 393.655 336.304 387.459 333.658C381.263 331.011 377.391 329.634 377.391 329.634C377.391 329.634 378.101 337.788 383.995 340.563C388.267 342.456 392.689 343.989 397.215 345.146L394.924 339.466Z" fill="#92E3A9"/>
<path d="M398.044 366.713C398.044 366.713 397.474 363.357 391.955 359.474C386.437 355.591 382.963 353.428 382.963 353.428C382.963 353.428 381.952 361.55 387.126 365.487C390.905 368.239 394.91 370.668 399.098 372.748L398.044 366.713Z" fill="#92E3A9"/>
<path d="M399.271 373.285C399.271 373.285 398.196 370.058 401.283 364.035C404.37 358.011 406.414 354.493 406.414 354.493C406.414 354.493 411.093 361.206 408.361 367.111C406.302 371.304 403.895 375.316 401.164 379.105L399.271 373.285Z" fill="#92E3A9"/>
<path d="M408.672 400.339C408.672 400.339 409.059 396.961 414.341 392.809C419.622 388.657 422.946 386.258 422.946 386.258C422.946 386.258 424.42 394.315 419.482 398.542C415.866 401.501 412.009 404.153 407.951 406.47L408.672 400.339Z" fill="#92E3A9"/>
<path d="M407.262 391.991C407.262 391.991 406.682 388.635 401.174 384.752C395.667 380.869 392.203 378.707 392.203 378.707C392.203 378.707 391.192 386.828 396.366 390.776C400.148 393.524 404.153 395.953 408.338 398.037L407.262 391.991Z" fill="#92E3A9"/>
<path d="M407.264 410.235C407.264 410.235 407.544 406.836 403.198 401.683C398.852 396.531 396.034 393.562 396.034 393.562C396.034 393.562 392.99 401.156 397.002 406.287C399.943 409.901 403.181 413.261 406.683 416.334L407.264 410.235Z" fill="#92E3A9"/>
<path d="M380.553 309.691C381.394 313.145 382.425 316.549 383.64 319.889C387.157 329.161 392.869 334.55 396.225 342.887C399.581 351.223 396.225 363.325 399.538 374.2C402.852 385.075 408.337 390.518 408.337 398.155C408.337 405.792 405.369 427.037 405.369 427.037" stroke="#263238" stroke-linecap="round" stroke-linejoin="round"/>
<path d="M382.845 318.361L377.111 315.36" stroke="#263238" stroke-linecap="round" stroke-linejoin="round"/>
<path d="M381.834 313.93L383.297 309.799" stroke="#263238" stroke-linecap="round" stroke-linejoin="round"/>
<path d="M395.871 342.543C395.871 342.543 391.084 340.101 386.189 337.67" stroke="#263238" stroke-linecap="round" stroke-linejoin="round"/>
<path d="M392.611 336.293C394.022 331.861 395.878 327.583 398.151 323.525" stroke="#263238" stroke-linecap="round" stroke-linejoin="round"/>
<path d="M398.71 371.511C395.519 367.472 391.758 363.917 387.545 360.958" stroke="#263238" stroke-linecap="round" stroke-linejoin="round"/>
<path d="M400.346 376.071C401.111 372.826 402.144 369.649 403.433 366.573C405.272 362.496 405.584 361.959 405.584 361.959" stroke="#263238" stroke-linecap="round" stroke-linejoin="round"/>
<path d="M408.08 403.953C409.945 401.642 412.012 399.5 414.254 397.553C415.681 396.502 417.02 395.337 418.256 394.068" stroke="#263238" stroke-linecap="round" stroke-linejoin="round"/>
<path d="M408.338 398.155C406.802 395.676 405.079 393.317 403.186 391.099C401.321 389.063 399.292 387.185 397.119 385.484" stroke="#263238" stroke-linecap="round" stroke-linejoin="round"/>
<path d="M406.683 416.334C406.49 413.747 405.61 411.259 404.133 409.127C401.778 406.018 399.003 401.888 397.873 400.263" stroke="#263238" stroke-linecap="round" stroke-linejoin="round"/>
<path d="M75.5982 263.631L70.8867 250.174L75.5982 255.886L71.8979 235.696L77.6205 250.174L79.6427 221.895L83.0096 248.819L86.7099 243.44V250.174L91.0879 241.085L88.7322 256.897L92.766 254.208L86.3765 262.953L75.5982 263.631Z" fill="#92E3A9"/>
<path d="M90.4114 260.264H72.9102L76.0619 295.6H87.2597L90.4114 260.264Z" fill="#263238" stroke="#263238" stroke-linecap="round" stroke-linejoin="round"/>
<path d="M123.24 295.202H63.6152V421.487H123.24V295.202Z" fill="white" stroke="#263238" stroke-linecap="round" stroke-linejoin="round"/>
<path d="M126.501 295.202H93.4238V421.487H126.501V295.202Z" fill="white" stroke="#263238" stroke-linecap="round" stroke-linejoin="round"/>
<path d="M122.779 295.202H93.4238V421.487H122.779V295.202Z" fill="#263238" stroke="#263238" stroke-linecap="round" stroke-linejoin="round"/>
<path d="M119.477 392.121H93.4238V417.98H119.477V392.121Z" fill="#165DEE" stroke="#263238" stroke-linecap="round" stroke-linejoin="round"/>
<path d="M119.477 393.519H93.4238V396.832H119.477V393.519Z" fill="white" stroke="#263238" stroke-linecap="round" stroke-linejoin="round"/>
<path d="M119.477 412.558H93.4238V415.871H119.477V412.558Z" fill="white" stroke="#263238" stroke-linecap="round" stroke-linejoin="round"/>
<path d="M98.3613 392.658V425.359" stroke="#263238" stroke-linecap="round" stroke-linejoin="round"/>
<path d="M107.449 392.658V425.359" stroke="#263238" stroke-linecap="round" stroke-linejoin="round"/>
<path d="M115.43 392.658V425.359" stroke="#263238" stroke-linecap="round" stroke-linejoin="round"/>
<path d="M119.477 299.892H93.4238V337.917H119.477V299.892Z" fill="#165DEE" stroke="#263238" stroke-linecap="round" stroke-linejoin="round"/>
<path d="M119.477 301.484H93.4238V305.249H119.477V301.484Z" fill="white" stroke="#263238" stroke-linecap="round" stroke-linejoin="round"/>
<path d="M119.477 325.859H93.4238V329.624H119.477V325.859Z" fill="white" stroke="#263238" stroke-linecap="round" stroke-linejoin="round"/>
<path d="M98.3613 300.494V337.659" stroke="#263238" stroke-linecap="round" stroke-linejoin="round"/>
<path d="M107.449 300.494V337.659" stroke="#263238" stroke-linecap="round" stroke-linejoin="round"/>
<path d="M115.43 300.494V337.659" stroke="#263238" stroke-linecap="round" stroke-linejoin="round"/>
<path d="M119.477 345.716H93.4238V383.741H119.477V345.716Z" fill="#165DEE" stroke="#263238" stroke-linecap="round" stroke-linejoin="round"/>
<path d="M119.477 347.308H93.4238V351.073H119.477V347.308Z" fill="white" stroke="#263238" stroke-linecap="round" stroke-linejoin="round"/>
<path d="M119.477 371.683H93.4238V375.448H119.477V371.683Z" fill="white" stroke="#263238" stroke-linecap="round" stroke-linejoin="round"/>
<path d="M98.3613 346.329V383.483" stroke="#263238" stroke-linecap="round" stroke-linejoin="round"/>
<path d="M107.449 346.329V383.483" stroke="#263238" stroke-linecap="round" stroke-linejoin="round"/>
<path d="M115.43 346.329V383.483" stroke="#263238" stroke-linecap="round" stroke-linejoin="round"/>
<path d="M123.231 337.39H93.4238V341.714H123.231V337.39Z" fill="white" stroke="#263238" stroke-linecap="round" stroke-linejoin="round"/>
<path d="M123.231 383.504H93.4238V387.829H123.231V383.504Z" fill="white" stroke="#263238" stroke-linecap="round" stroke-linejoin="round"/>
<path d="M123.229 295.202V421.476" stroke="#263238" stroke-linecap="round" stroke-linejoin="round"/>
<path d="M89.2168 295.202V421.476H93.4227V299.892H122.713V295.148L89.2168 295.202Z" fill="white" stroke="#263238" stroke-linecap="round" stroke-linejoin="round"/>
<path d="M93.4238 299.892V295.202" stroke="#263238" stroke-linecap="round" stroke-linejoin="round"/>
<path d="M123.005 237.191C119.875 231.156 118.562 226.832 118.562 225.832C118.562 223.852 122.865 222.669 122.865 222.669C129.577 219.119 161.149 224.25 175.358 226.617C183.313 228.004 191.36 228.795 199.432 228.983C199.432 228.983 201.4 227.413 203.735 225.434C206.069 223.454 217.148 210.439 221.494 209.299C225.84 208.158 229.777 210.88 229.777 210.88C229.777 210.88 236.887 215.182 235.693 216.011C234.499 216.839 217.148 231.791 212.803 234.555C208.457 237.32 199.389 236.137 191.493 237.718C184.695 239.073 157.158 240.751 150.844 241.268C146.102 242.392 141.125 241.978 136.634 240.084" fill="white"/>
<mask id="mask0_408_859" style="mask-type:luminance" maskUnits="userSpaceOnUse" x="118" y="209" width="118" height="33">
<path d="M123.005 237.191C119.875 231.156 118.562 226.832 118.562 225.832C118.562 223.852 122.865 222.669 122.865 222.669C129.577 219.119 161.149 224.25 175.358 226.617C183.313 228.004 191.36 228.795 199.432 228.983C199.432 228.983 201.4 227.413 203.735 225.434C206.069 223.454 217.148 210.439 221.494 209.299C225.84 208.158 229.777 210.88 229.777 210.88C229.777 210.88 236.887 215.182 235.693 216.011C234.499 216.839 217.148 231.791 212.803 234.555C208.457 237.32 199.389 236.137 191.493 237.718C184.695 239.073 157.158 240.751 150.844 241.268C146.102 242.392 141.125 241.978 136.634 240.084" fill="white"/>
</mask>
<g mask="url(#mask0_408_859)">
<path d="M229.853 210.837C229.853 210.837 225.905 208.072 221.57 209.255C217.235 210.439 206.177 223.465 203.811 225.391C201.444 227.316 199.508 228.94 199.508 228.94C191.436 228.752 183.389 227.961 175.434 226.574C161.225 224.207 129.654 219.044 122.941 222.626C122.941 222.626 118.639 223.809 118.639 225.789C118.788 226.895 119.074 227.979 119.488 229.016L120.08 229.231C120.08 229.231 127.965 228.403 144.982 228.811C161.999 229.22 201.358 231.554 203.886 232.469C204.962 232.877 212.588 231.156 221.043 228.166C227.497 222.906 235.081 216.333 235.844 215.871C236.963 215.172 229.853 210.837 229.853 210.837Z" fill="#165DEE"/>
<path opacity="0.5" d="M229.853 210.837C229.853 210.837 225.905 208.072 221.57 209.255C217.235 210.439 206.177 223.465 203.811 225.391C201.444 227.316 199.508 228.94 199.508 228.94C191.436 228.752 183.389 227.961 175.434 226.574C161.225 224.207 129.654 219.044 122.941 222.626C122.941 222.626 118.639 223.809 118.639 225.789C118.788 226.895 119.074 227.979 119.488 229.016L120.08 229.231C120.08 229.231 127.965 228.403 144.982 228.811C161.999 229.22 201.358 231.554 203.886 232.469C204.962 232.877 212.588 231.156 221.043 228.166C227.497 222.906 235.081 216.333 235.844 215.871C236.963 215.172 229.853 210.837 229.853 210.837Z" fill="white"/>
</g>
<path d="M123.005 237.191C119.875 231.156 118.562 226.832 118.562 225.832C118.562 223.852 122.865 222.669 122.865 222.669C129.577 219.119 161.149 224.25 175.358 226.617C183.313 228.004 191.36 228.795 199.432 228.983C199.432 228.983 201.4 227.413 203.735 225.434C206.069 223.454 217.148 210.439 221.494 209.299C225.84 208.158 229.777 210.88 229.777 210.88C229.777 210.88 236.887 215.182 235.693 216.011C234.499 216.839 217.148 231.791 212.803 234.555C208.457 237.32 199.389 236.137 191.493 237.718C184.695 239.073 157.158 240.751 150.844 241.268C146.102 242.392 141.125 241.978 136.634 240.084" stroke="#263238" stroke-linecap="round" stroke-linejoin="round"/>
<path d="M278.882 272.279C279.596 270.924 280.667 269.79 281.979 268.999C283.291 268.209 284.794 267.792 286.325 267.794H358.073C358.073 267.794 363.258 267.794 361.709 277.647C360.16 287.5 338.883 347.663 333.741 365.853C328.6 384.042 327.513 422.379 327.513 422.379H241.459C241.459 422.379 248.279 330.699 278.882 272.279Z" fill="white"/>
<mask id="mask1_408_859" style="mask-type:luminance" maskUnits="userSpaceOnUse" x="241" y="267" width="121" height="156">
<path d="M278.882 272.279C279.596 270.924 280.667 269.79 281.979 268.999C283.291 268.209 284.794 267.792 286.325 267.794H358.073C358.073 267.794 363.258 267.794 361.709 277.647C360.16 287.5 338.883 347.663 333.741 365.853C328.6 384.042 327.513 422.379 327.513 422.379H241.459C241.459 422.379 248.279 330.699 278.882 272.279Z" fill="white"/>
</mask>
<g mask="url(#mask1_408_859)">
<path opacity="0.16" d="M311.194 267.794H286.325C284.793 267.792 283.29 268.209 281.978 268.999C280.666 269.79 279.595 270.924 278.881 272.279C248.278 330.699 241.383 422.347 241.383 422.347H279.978L289.498 386.194L329.19 394.379C329.47 391.346 329.793 388.259 330.169 385.215L329.298 375.534C329.298 375.534 321.166 366.982 318.606 364.841C316.046 362.701 317.745 358.839 317.315 342.155C316.885 325.472 301.911 313.478 296.339 303.205C290.767 292.932 299.34 286.511 307.042 276.238C309.785 272.527 310.904 269.795 311.194 267.794Z" fill="black"/>
</g>
<path d="M278.882 272.279C279.596 270.924 280.667 269.79 281.979 268.999C283.291 268.209 284.794 267.792 286.325 267.794H358.073C358.073 267.794 363.258 267.794 361.709 277.647C360.16 287.5 338.883 347.663 333.741 365.853C328.6 384.042 327.513 422.379 327.513 422.379H241.459C241.459 422.379 248.279 330.699 278.882 272.279Z" stroke="#263238" stroke-linecap="round" stroke-linejoin="round"/>
<path d="M345.628 284.908C338.378 301.828 323.039 368.811 320.543 422.347H327.47C327.47 422.347 328.546 383.967 333.698 365.82C338.851 347.674 360.149 287.5 361.666 277.615C363.183 267.729 358.03 267.762 358.03 267.762C358.03 267.762 351.447 271.344 345.628 284.908Z" fill="#263238" stroke="#263238" stroke-linecap="round" stroke-linejoin="round"/>
<path d="M219.591 251.089C219.591 251.089 208.145 244.376 203.81 232.544C199.475 220.711 237.748 201.758 254.367 200.575C270.986 199.392 275.676 203.726 285.562 220.701C295.447 237.675 302.138 260.953 297.007 272.398C291.876 283.843 283.195 286.607 289.477 296.063C295.759 305.518 313.551 332.367 312.368 344.995C311.185 357.624 298.954 368.66 281.173 369.865C263.392 371.07 239.727 360.388 219.999 342.973C200.272 325.558 205.392 299.946 212.47 291.663C219.548 283.38 230.229 280.218 231.014 271.935C231.8 263.652 219.591 251.089 219.591 251.089Z" fill="#263238" stroke="#263238" stroke-linecap="round" stroke-linejoin="round"/>
<path d="M268.371 232.361C274.449 243.677 282.054 258.833 284.431 267.987C288.583 284.015 267.22 294.105 273.147 301.817" stroke="white" stroke-linecap="round" stroke-linejoin="round"/>
<path d="M260.09 217.538C260.09 217.538 262.456 221.572 265.726 227.51" stroke="white" stroke-linecap="round" stroke-linejoin="round"/>
<path d="M291.971 246.011C292.672 248.132 293.127 250.327 293.326 252.551" stroke="white" stroke-linecap="round" stroke-linejoin="round"/>
<path d="M264.197 211.654C264.197 211.654 282.893 225.466 290.358 241.999" stroke="white" stroke-linecap="round" stroke-linejoin="round"/>
<path d="M238.253 222.013C224.904 225.756 205.703 231.834 207.263 235.341" stroke="white" stroke-linecap="round" stroke-linejoin="round"/>
<path d="M250.59 218.721C250.59 218.721 247.739 219.431 243.49 220.572" stroke="white" stroke-linecap="round" stroke-linejoin="round"/>
<path d="M234.078 211.751C241.725 209.341 249.733 208.286 257.743 208.632" stroke="white" stroke-linecap="round" stroke-linejoin="round"/>
<path d="M228.637 213.978C229.846 213.348 231.096 212.801 232.38 212.343" stroke="white" stroke-linecap="round" stroke-linejoin="round"/>
<path d="M123.005 237.191C121.193 233.873 119.75 230.367 118.702 226.735C119.745 230.369 121.188 233.875 123.005 237.191ZM118.584 226.122C118.584 226.187 118.584 226.262 118.584 226.359C118.605 226.262 118.595 226.187 118.584 226.122ZM123.005 237.18C127.028 244.8 132.033 251.859 137.892 258.177C152.102 273.57 193.15 313.833 197.054 316.597C200.959 319.362 199.819 327.246 197.054 335.142C194.29 343.037 184.028 354.504 184.426 367.111C184.824 379.718 188.729 399.08 188.374 403.028C188.019 406.976 178.144 420.4 178.144 420.4H279.968C279.968 420.4 267.275 404.265 267.275 398.747C267.275 393.228 284.701 322.524 285.486 317.393C286.271 312.262 283.119 308.713 276.805 308.315C270.491 307.917 246.417 302.786 245.234 298.838C244.051 294.89 251.548 279.895 251.548 279.895L227.883 281.078C227.883 281.078 226.7 291.34 225.119 293.32C223.538 295.299 221.171 291.34 215.642 288.587C210.113 285.833 199.507 283.456 195.516 280.293C191.525 277.131 153.683 241.569 153.683 241.569" fill="white"/>
<mask id="mask2_408_859" style="mask-type:luminance" maskUnits="userSpaceOnUse" x="118" y="225" width="168" height="196">
<path d="M123.005 237.191C121.193 233.873 119.75 230.367 118.702 226.735C119.745 230.369 121.188 233.875 123.005 237.191ZM118.584 226.122C118.584 226.187 118.584 226.262 118.584 226.359C118.605 226.262 118.595 226.187 118.584 226.122ZM123.005 237.18C127.028 244.8 132.033 251.859 137.892 258.177C152.102 273.57 193.15 313.833 197.054 316.597C200.959 319.362 199.819 327.246 197.054 335.142C194.29 343.037 184.028 354.504 184.426 367.111C184.824 379.718 188.729 399.08 188.374 403.028C188.019 406.976 178.144 420.4 178.144 420.4H279.968C279.968 420.4 267.275 404.265 267.275 398.747C267.275 393.228 284.701 322.524 285.486 317.393C286.271 312.262 283.119 308.713 276.805 308.315C270.491 307.917 246.417 302.786 245.234 298.838C244.051 294.89 251.548 279.895 251.548 279.895L227.883 281.078C227.883 281.078 226.7 291.34 225.119 293.32C223.538 295.299 221.171 291.34 215.642 288.587C210.113 285.833 199.507 283.456 195.516 280.293C191.525 277.131 153.683 241.569 153.683 241.569" fill="white"/>
</mask>
<g mask="url(#mask2_408_859)">
<path d="M201.559 283.337C203.527 286.78 205.496 289.888 205.496 289.888C205.496 289.888 212.132 293.621 213.789 293.621C215.446 293.621 225.406 298.999 225.406 298.999C225.406 298.999 233.711 296.923 230.785 289.867C229.862 288.06 228.696 286.388 227.321 284.897C226.826 288.027 226.03 292.126 225.094 293.298C223.513 295.267 221.147 291.319 215.618 288.565C212.036 286.78 206.238 285.144 201.559 283.337Z" fill="#165DEE"/>
<path d="M181.294 267.364C169.107 256.08 153.682 241.612 153.682 241.612L144.71 240.321L143.635 240.923C143.635 240.923 168.956 263.33 174.345 265.825C176.526 266.827 178.895 267.352 181.294 267.364Z" fill="#165DEE"/>
<path d="M194.064 279.045L193.096 278.185C193.591 279.002 193.87 279.519 193.87 279.519L194.064 279.045Z" fill="#165DEE"/>
<g opacity="0.5">
<path d="M201.559 283.337C203.527 286.78 205.496 289.888 205.496 289.888C205.496 289.888 212.132 293.621 213.789 293.621C215.446 293.621 225.406 298.999 225.406 298.999C225.406 298.999 233.711 296.923 230.785 289.867C229.862 288.06 228.696 286.388 227.321 284.897C226.826 288.027 226.03 292.126 225.094 293.298C223.513 295.267 221.147 291.319 215.618 288.565C212.036 286.78 206.238 285.144 201.559 283.337Z" fill="white"/>
<path d="M181.294 267.364C169.107 256.08 153.682 241.612 153.682 241.612L144.71 240.321L143.635 240.923C143.635 240.923 168.956 263.33 174.345 265.825C176.526 266.827 178.895 267.352 181.294 267.364Z" fill="white"/>
<path d="M194.064 279.045L193.096 278.185C193.591 279.002 193.87 279.519 193.87 279.519L194.064 279.045Z" fill="white"/>
</g>
</g>
<path d="M118.562 225.832C118.557 225.907 118.557 225.982 118.562 226.058M118.702 226.735C119.75 230.367 121.193 233.873 123.005 237.191C121.188 233.875 119.745 230.369 118.702 226.735ZM118.702 226.735C118.672 226.633 118.651 226.529 118.638 226.423M123.005 237.18C127.028 244.8 132.033 251.859 137.892 258.177C152.102 273.57 193.15 313.833 197.054 316.597C200.959 319.362 199.819 327.246 197.054 335.142C194.29 343.037 184.028 354.504 184.426 367.111C184.824 379.718 188.729 399.08 188.374 403.028C188.019 406.976 178.144 420.4 178.144 420.4H279.968C279.968 420.4 267.275 404.265 267.275 398.747C267.275 393.228 284.701 322.524 285.486 317.393C286.271 312.262 283.119 308.713 276.805 308.315C270.491 307.917 246.417 302.786 245.234 298.838C244.051 294.89 251.548 279.895 251.548 279.895L227.883 281.078C227.883 281.078 226.7 291.34 225.119 293.32C223.538 295.299 221.171 291.34 215.642 288.587C210.113 285.833 199.507 283.456 195.516 280.293C191.525 277.131 153.683 241.569 153.683 241.569M118.584 226.122C118.584 226.187 118.584 226.262 118.584 226.359C118.605 226.262 118.595 226.187 118.584 226.122Z" stroke="#263238" stroke-linecap="round" stroke-linejoin="round"/>
<path d="M153.683 241.612C153.683 241.612 141.076 241.848 134.041 236.051" stroke="#263238" stroke-linecap="round" stroke-linejoin="round"/>
<path d="M245.245 298.838C244.062 294.901 251.559 279.895 251.559 279.895L227.894 281.078C227.894 281.078 226.711 291.34 225.13 293.32C223.549 295.299 221.182 291.34 215.653 288.587C215.234 288.372 214.771 288.167 214.298 287.963L212.867 310.455C212.867 310.455 214.943 332.238 239.834 328.096C249.914 326.418 260.67 317.426 269.953 307.314C260.401 305.561 246.149 301.86 245.245 298.838Z" fill="white"/>
<mask id="mask3_408_859" style="mask-type:luminance" maskUnits="userSpaceOnUse" x="212" y="279" width="58" height="50">
<path d="M245.245 298.838C244.062 294.901 251.559 279.895 251.559 279.895L227.894 281.078C227.894 281.078 226.711 291.34 225.13 293.32C223.549 295.299 221.182 291.34 215.653 288.587C215.234 288.372 214.771 288.167 214.298 287.963L212.867 310.455C212.867 310.455 214.943 332.238 239.834 328.096C249.914 326.418 260.67 317.426 269.953 307.314C260.401 305.561 246.149 301.86 245.245 298.838Z" fill="white"/>
</mask>
<g mask="url(#mask3_408_859)">
<path d="M244.578 282.875C244.578 282.875 243.148 290.899 241.997 299.774C240.846 308.648 239.996 315.253 239.996 315.253L245.245 298.838L251.162 281.444C251.162 281.444 245.439 281.444 244.578 282.875Z" fill="#165DEE"/>
<path opacity="0.5" d="M244.578 282.875C244.578 282.875 243.148 290.899 241.997 299.774C240.846 308.648 239.996 315.253 239.996 315.253L245.245 298.838L251.162 281.444C251.162 281.444 245.439 281.444 244.578 282.875Z" fill="white"/>
</g>
<path d="M245.245 298.838C244.062 294.901 251.559 279.895 251.559 279.895L227.894 281.078C227.894 281.078 226.711 291.34 225.13 293.32C223.549 295.299 221.182 291.34 215.653 288.587C215.234 288.372 214.771 288.167 214.298 287.963L212.867 310.455C212.867 310.455 214.943 332.238 239.834 328.096C249.914 326.418 260.67 317.426 269.953 307.314C260.401 305.561 246.149 301.86 245.245 298.838Z" stroke="#263238" stroke-linecap="round" stroke-linejoin="round"/>
<path d="M225.119 293.32C223.538 295.288 221.171 291.34 215.642 288.587C212.157 286.833 206.607 285.241 202.013 283.52C200.712 280.433 198.991 276.41 197.883 273.979C195.914 269.676 192.752 272.398 192.752 272.398C191.102 270.521 189.769 268.389 188.804 266.083C186.836 261.781 183.673 262.136 179.338 261.351C175.003 260.565 165.914 252.272 165.914 252.272C165.914 252.272 161.665 249.045 159.911 247.442C157.868 251.465 152.973 258.543 142.389 262.964C159.266 280.594 193.505 314.091 197.098 316.608C201.045 319.362 199.862 327.257 197.098 335.153C194.333 343.048 184.071 354.515 184.469 367.122C184.867 379.729 188.772 399.091 188.417 403.039C188.062 406.556 180.188 417.582 178.478 419.948L182.49 420.4H203.38C203.261 409.815 203.272 366.616 210.511 349.405C218.805 329.624 225.119 293.32 225.119 293.32Z" fill="#165DEE"/>
<mask id="mask4_408_859" style="mask-type:luminance" maskUnits="userSpaceOnUse" x="142" y="247" width="84" height="174">
<path d="M225.121 293.32C223.54 295.288 221.173 291.34 215.644 288.587C212.159 286.833 206.609 285.241 202.015 283.52C200.714 280.433 198.993 276.41 197.885 273.979C195.916 269.676 192.754 272.398 192.754 272.398C191.104 270.521 189.771 268.389 188.806 266.083C186.838 261.781 183.675 262.136 179.34 261.351C175.005 260.565 165.916 252.272 165.916 252.272C165.916 252.272 161.667 249.045 159.913 247.442C157.87 251.465 152.975 258.543 142.391 262.964C159.268 280.594 193.507 314.091 197.1 316.608C201.047 319.362 199.864 327.257 197.1 335.153C194.335 343.048 184.073 354.515 184.471 367.122C184.869 379.729 188.774 399.091 188.419 403.039C188.064 406.556 180.19 417.582 178.48 419.948L182.492 420.4H203.382C203.263 409.815 203.274 366.616 210.513 349.405C218.807 329.624 225.121 293.32 225.121 293.32Z" fill="white"/>
</mask>
<g mask="url(#mask4_408_859)">
<path opacity="0.16" d="M215.644 288.587C212.159 286.833 206.609 285.241 202.015 283.52C200.714 280.433 198.993 276.41 197.885 273.979C195.916 269.676 192.754 272.398 192.754 272.398C191.104 270.521 189.771 268.389 188.806 266.083C186.838 261.781 183.675 262.136 179.34 261.351C175.005 260.565 165.916 252.272 165.916 252.272C165.916 252.272 161.667 249.045 159.913 247.442C159.038 249.15 157.997 250.768 156.805 252.272C163.861 258.242 171.649 264.567 174.37 265.825C179.749 268.31 181.007 266.234 185.127 268.73C189.247 271.225 193.84 279.486 193.84 279.486C193.84 279.486 196.336 272.839 198.412 277.41C200.488 281.982 205.468 289.856 205.468 289.856C205.468 289.856 212.105 293.589 213.762 293.589C215.063 293.589 221.442 296.902 224.153 298.332C224.755 295.181 225.089 293.287 225.089 293.287C223.54 295.288 221.173 291.34 215.644 288.587Z" fill="black"/>
</g>
<path d="M225.119 293.32C223.538 295.288 221.171 291.34 215.642 288.587C212.157 286.833 206.607 285.241 202.013 283.52C200.712 280.433 198.991 276.41 197.883 273.979C195.914 269.676 192.752 272.398 192.752 272.398C191.102 270.521 189.769 268.389 188.804 266.083C186.836 261.781 183.673 262.136 179.338 261.351C175.003 260.565 165.914 252.272 165.914 252.272C165.914 252.272 161.665 249.045 159.911 247.442C157.868 251.465 152.973 258.543 142.389 262.964C159.266 280.594 193.505 314.091 197.098 316.608C201.045 319.362 199.862 327.257 197.098 335.153C194.333 343.048 184.071 354.515 184.469 367.122C184.867 379.729 188.772 399.091 188.417 403.039C188.062 406.556 180.188 417.582 178.478 419.948L182.49 420.4H203.38C203.261 409.815 203.272 366.616 210.511 349.405C218.805 329.624 225.119 293.32 225.119 293.32Z" stroke="#263238" stroke-linecap="round" stroke-linejoin="round"/>
<path d="M225.4 291.943C225.4 291.943 220.495 290.437 217.472 293.083C214.45 295.729 209.943 309.304 207.286 324.03C205.648 332.603 206.778 341.474 210.513 349.362C210.513 349.362 216.719 333.087 218.602 325.16C220.484 317.232 225.4 291.943 225.4 291.943Z" fill="#165DEE"/>
<mask id="mask5_408_859" style="mask-type:luminance" maskUnits="userSpaceOnUse" x="206" y="291" width="20" height="59">
<path d="M225.398 291.943C225.398 291.943 220.493 290.437 217.47 293.083C214.448 295.729 209.941 309.304 207.284 324.03C205.646 332.603 206.776 341.474 210.511 349.362C210.511 349.362 216.717 333.087 218.6 325.16C220.482 317.232 225.398 291.943 225.398 291.943Z" fill="white"/>
</mask>
<g mask="url(#mask5_408_859)">
<path opacity="0.16" d="M215.988 294.342C215.988 294.342 219.538 293.481 221.001 293.976C222.233 294.504 223.384 295.203 224.422 296.052L225.4 291.943C223.932 291.192 222.267 290.918 220.635 291.158C218.193 291.652 215.988 294.342 215.988 294.342Z" fill="black"/>
</g>
<path d="M225.4 291.943C225.4 291.943 220.495 290.437 217.472 293.083C214.45 295.729 209.943 309.304 207.286 324.03C205.648 332.603 206.778 341.474 210.513 349.362C210.513 349.362 216.719 333.087 218.602 325.16C220.484 317.232 225.4 291.943 225.4 291.943Z" stroke="#263238" stroke-linecap="round" stroke-linejoin="round"/>
<path d="M192.364 293.234L198.678 318.888L184.469 286.521" stroke="#263238" stroke-linecap="round" stroke-linejoin="round"/>
<path d="M233.961 420.4H279.978C279.978 420.4 267.285 404.265 267.285 398.747C267.285 393.228 284.711 322.524 285.496 317.393C286.282 312.262 283.13 308.713 276.816 308.315C270.501 307.917 246.428 302.786 245.245 298.838C245.245 298.838 236.166 330.807 233.014 352.514C230.303 371.134 233.111 409.772 233.961 420.4Z" fill="#165DEE"/>
<mask id="mask6_408_859" style="mask-type:luminance" maskUnits="userSpaceOnUse" x="231" y="298" width="55" height="123">
<path d="M233.963 420.4H279.98C279.98 420.4 267.287 404.265 267.287 398.747C267.287 393.228 284.713 322.524 285.498 317.393C286.284 312.262 283.132 308.713 276.818 308.315C270.503 307.917 246.43 302.786 245.247 298.838C245.247 298.838 236.168 330.807 233.016 352.514C230.305 371.134 233.113 409.772 233.963 420.4Z" fill="white"/>
</mask>
<g mask="url(#mask6_408_859)">
<path opacity="0.16" d="M276.818 308.315C271.644 307.992 254.551 304.485 247.893 301.065L250.313 306.658C254.698 308.984 259.414 310.624 264.297 311.52C272.31 312.951 279.765 312.671 284.638 319.835L284.874 320.19C285.176 318.813 285.38 317.845 285.444 317.393C286.294 312.262 283.132 308.713 276.818 308.315Z" fill="black"/>
</g>
<path d="M233.961 420.4H279.978C279.978 420.4 267.285 404.265 267.285 398.747C267.285 393.228 284.711 322.524 285.496 317.393C286.282 312.262 283.13 308.713 276.816 308.315C270.501 307.917 246.428 302.786 245.245 298.838C245.245 298.838 236.166 330.807 233.014 352.514C230.303 371.134 233.111 409.772 233.961 420.4Z" stroke="#263238" stroke-linecap="round" stroke-linejoin="round"/>
<path d="M245.246 298.838C245.246 298.838 233.069 337.562 233.016 352.514C233.016 352.514 250.313 331.571 252.571 316.855C254.83 302.14 245.246 298.838 245.246 298.838Z" fill="#165DEE"/>
<mask id="mask7_408_859" style="mask-type:luminance" maskUnits="userSpaceOnUse" x="233" y="298" width="20" height="55">
<path d="M245.244 298.838C245.244 298.838 233.067 337.562 233.014 352.514C233.014 352.514 250.311 331.571 252.569 316.855C254.828 302.14 245.244 298.838 245.244 298.838Z" fill="white"/>
</mask>
<g mask="url(#mask7_408_859)">
<path opacity="0.16" d="M243.146 303.786C244.976 303.725 246.793 304.11 248.441 304.908C250.088 305.707 251.516 306.894 252.602 308.368C252.602 308.368 250.214 301.344 245.244 298.838L243.146 303.786Z" fill="black"/>
</g>
<path d="M245.246 298.838C245.246 298.838 233.069 337.562 233.016 352.514C233.016 352.514 250.313 331.571 252.571 316.855C254.83 302.14 245.246 298.838 245.246 298.838Z" stroke="#263238" stroke-linecap="round" stroke-linejoin="round"/>
<path d="M375.241 413.118C375.241 413.118 384.158 413.484 389.999 414.323C393.894 414.851 397.816 415.163 401.745 415.258C401.745 415.258 398.518 408.74 395.076 406.9C391.634 405.061 385.395 401.769 380.167 402.501C374.94 403.232 367.464 408.503 368.087 410.181C368.711 411.859 371.497 412.612 375.241 413.118Z" fill="white"/>
<mask id="mask8_408_859" style="mask-type:luminance" maskUnits="userSpaceOnUse" x="368" y="402" width="34" height="14">
<path d="M375.239 413.118C375.239 413.118 384.156 413.484 389.997 414.323C393.892 414.851 397.814 415.163 401.743 415.258C401.743 415.258 398.516 408.74 395.074 406.9C391.632 405.061 385.393 401.769 380.165 402.501C374.938 403.232 367.462 408.503 368.085 410.181C368.709 411.859 371.495 412.612 375.239 413.118Z" fill="white"/>
</mask>
<g mask="url(#mask8_408_859)">
<path d="M375.239 413.118C375.239 413.118 384.156 413.484 389.997 414.323C393.892 414.851 397.814 415.163 401.743 415.258C401.743 415.258 398.516 408.74 395.074 406.9C391.632 405.061 385.393 401.769 380.165 402.501C374.938 403.232 367.462 408.503 368.085 410.181C368.709 411.859 371.495 412.612 375.239 413.118Z" fill="#165DEE"/>
<path opacity="0.5" d="M375.239 413.118C375.239 413.118 384.156 413.484 389.997 414.323C393.892 414.851 397.814 415.163 401.743 415.258C401.743 415.258 398.516 408.74 395.074 406.9C391.632 405.061 385.393 401.769 380.165 402.501C374.938 403.232 367.462 408.503 368.085 410.181C368.709 411.859 371.495 412.612 375.239 413.118Z" fill="white"/>
</g>
<path d="M375.241 413.118C375.241 413.118 384.158 413.484 389.999 414.323C393.894 414.851 397.816 415.163 401.745 415.258C401.745 415.258 398.518 408.74 395.076 406.9C391.634 405.061 385.395 401.769 380.167 402.501C374.94 403.232 367.464 408.503 368.087 410.181C368.711 411.859 371.497 412.612 375.241 413.118Z" stroke="#263238" stroke-linecap="round" stroke-linejoin="round"/>
<path d="M390.051 410.45C390.051 410.45 397.118 406.782 398.882 406.836C400.646 406.89 412.371 414.817 411.79 416.087C411.396 416.675 410.826 417.125 410.162 417.372C409.498 417.619 408.773 417.651 408.09 417.463C406.788 416.85 398.893 413.494 398.893 413.494L393.73 414.71L390.051 410.45Z" fill="white"/>
<mask id="mask9_408_859" style="mask-type:luminance" maskUnits="userSpaceOnUse" x="390" y="406" width="22" height="12">
<path d="M390.053 410.45C390.053 410.45 397.12 406.782 398.884 406.836C400.648 406.89 412.373 414.817 411.792 416.087C411.398 416.675 410.828 417.125 410.164 417.372C409.5 417.619 408.775 417.651 408.092 417.463C406.79 416.85 398.895 413.494 398.895 413.494L393.732 414.71L390.053 410.45Z" fill="white"/>
</mask>
<g mask="url(#mask9_408_859)">
<path d="M390.053 410.45C390.053 410.45 397.12 406.782 398.884 406.836C400.648 406.89 412.373 414.817 411.792 416.087C411.211 417.356 408.436 418.389 408.092 417.463C407.748 416.538 398.895 413.494 398.895 413.494L393.732 414.71L390.053 410.45Z" fill="#165DEE"/>
<path opacity="0.5" d="M390.053 410.45C390.053 410.45 397.12 406.782 398.884 406.836C400.648 406.89 412.373 414.817 411.792 416.087C411.211 417.356 408.436 418.389 408.092 417.463C407.748 416.538 398.895 413.494 398.895 413.494L393.732 414.71L390.053 410.45Z" fill="white"/>
</g>
<path d="M390.051 410.45C390.051 410.45 397.118 406.782 398.882 406.836C400.646 406.89 412.371 414.817 411.79 416.087C411.396 416.675 410.826 417.125 410.162 417.372C409.498 417.619 408.773 417.651 408.09 417.463C406.788 416.85 398.893 413.494 398.893 413.494L393.73 414.71L390.051 410.45Z" stroke="#263238" stroke-linecap="round" stroke-linejoin="round"/>
<path d="M385.008 404.416C385.008 404.416 394.431 404.114 396.302 405.061C398.174 406.008 406.629 420.508 405.36 421.562C404.09 422.616 400.584 422.304 400.691 421.132C400.799 419.959 392.903 412.193 392.903 412.193L386.761 410.848L385.008 404.416Z" fill="white"/>
<mask id="mask10_408_859" style="mask-type:luminance" maskUnits="userSpaceOnUse" x="385" y="404" width="21" height="19">
<path d="M385.006 404.416C385.006 404.416 394.429 404.114 396.3 405.061C398.172 406.008 406.627 420.508 405.358 421.562C404.088 422.616 400.582 422.304 400.689 421.132C400.797 419.959 392.901 412.193 392.901 412.193L386.759 410.848L385.006 404.416Z" fill="white"/>
</mask>
<g mask="url(#mask10_408_859)">
<path d="M385.006 404.416C385.006 404.416 394.429 404.114 396.3 405.061C398.172 406.008 406.627 420.508 405.358 421.562C404.088 422.616 400.582 422.304 400.689 421.132C400.797 419.959 392.901 412.193 392.901 412.193L386.759 410.848L385.006 404.416Z" fill="#165DEE"/>
<path opacity="0.5" d="M385.006 404.416C385.006 404.416 394.429 404.114 396.3 405.061C398.172 406.008 406.627 420.508 405.358 421.562C404.088 422.616 400.582 422.304 400.689 421.132C400.797 419.959 392.901 412.193 392.901 412.193L386.759 410.848L385.006 404.416Z" fill="white"/>
</g>
<path d="M385.008 404.416C385.008 404.416 394.431 404.114 396.302 405.061C398.174 406.008 406.629 420.508 405.36 421.562C404.09 422.616 400.584 422.304 400.691 421.132C400.799 419.959 392.903 412.193 392.903 412.193L386.761 410.848L385.008 404.416Z" stroke="#263238" stroke-linecap="round" stroke-linejoin="round"/>
<path d="M379.426 402.469C379.426 402.469 388.967 402.157 390.86 403.125C392.753 404.093 401.316 418.754 400.025 419.83C398.734 420.906 395.206 420.572 395.314 419.389C395.421 418.206 387.429 410.342 387.429 410.342L381.211 408.976L379.426 402.469Z" fill="white"/>
<mask id="mask11_408_859" style="mask-type:luminance" maskUnits="userSpaceOnUse" x="379" y="402" width="22" height="19">
<path d="M379.426 402.469C379.426 402.469 388.967 402.157 390.86 403.125C392.753 404.093 401.316 418.754 400.025 419.83C398.734 420.906 395.206 420.572 395.314 419.389C395.421 418.206 387.429 410.342 387.429 410.342L381.211 408.976L379.426 402.469Z" fill="white"/>
</mask>
<g mask="url(#mask11_408_859)">
<path d="M379.426 402.469C379.426 402.469 388.967 402.157 390.86 403.125C392.753 404.093 401.316 418.754 400.025 419.83C398.734 420.906 395.206 420.572 395.314 419.389C395.421 418.206 387.429 410.342 387.429 410.342L381.211 408.976L379.426 402.469Z" fill="#165DEE"/>
<path opacity="0.5" d="M379.426 402.469C379.426 402.469 388.967 402.157 390.86 403.125C392.753 404.093 401.316 418.754 400.025 419.83C398.734 420.906 395.206 420.572 395.314 419.389C395.421 418.206 387.429 410.342 387.429 410.342L381.211 408.976L379.426 402.469Z" fill="white"/>
</g>
<path d="M379.426 402.469C379.426 402.469 388.967 402.157 390.86 403.125C392.753 404.093 401.316 418.754 400.025 419.83C398.734 420.906 395.206 420.572 395.314 419.389C395.421 418.206 387.429 410.342 387.429 410.342L381.211 408.976L379.426 402.469Z" stroke="#263238" stroke-linecap="round" stroke-linejoin="round"/>
<path d="M270.943 347.803C277.849 358.441 291.714 385.398 295.759 388.431C302.073 393.164 344.283 404.652 348.349 407.793C352.415 410.934 352.135 414.086 355.986 415.237C359.837 416.388 374.272 419.69 379.78 420.206C385.287 420.723 382.824 417.313 382.824 417.313L373.433 410.859L381.619 408.837C381.619 408.837 389.827 418.711 391.365 419.249C392.903 419.787 395.614 419.249 395.442 418.034C395.141 416.087 386.385 400.156 383.276 399.478C380.167 398.8 361.3 401.414 361.3 401.414C361.3 401.414 321.726 374.727 321.016 373.78C321.016 373.78 318.649 367.068 316.713 364.304C314.777 361.539 313.55 362.335 313.55 362.335C313.55 362.335 314.346 358.775 313.163 357.591L306.849 351.277L306.623 351.578C305.547 349.427 304.472 346.974 303.288 344.178C299.986 336.4 288.294 314.575 286.325 311.423C284.851 309.068 272.503 307.379 266.242 306.669" fill="#165DEE"/>
<mask id="mask12_408_859" style="mask-type:luminance" maskUnits="userSpaceOnUse" x="266" y="306" width="130" height="115">
<path d="M270.941 347.803C277.847 358.441 291.712 385.398 295.757 388.431C302.071 393.164 344.281 404.652 348.347 407.793C352.413 410.934 352.133 414.086 355.984 415.237C359.835 416.388 374.27 419.69 379.778 420.206C385.285 420.723 382.822 417.313 382.822 417.313L373.431 410.859L381.617 408.837C381.617 408.837 389.825 418.711 391.363 419.249C392.901 419.787 395.612 419.249 395.44 418.034C395.139 416.087 386.383 400.156 383.274 399.478C380.165 398.8 361.298 401.414 361.298 401.414C361.298 401.414 321.724 374.727 321.014 373.78C321.014 373.78 318.647 367.068 316.711 364.304C314.775 361.539 313.549 362.335 313.549 362.335C313.549 362.335 314.344 358.775 313.161 357.591L306.847 351.277L306.621 351.578C305.545 349.427 304.47 346.974 303.287 344.178C299.984 336.401 288.292 314.575 286.323 311.423C284.849 309.068 272.501 307.379 266.24 306.669" fill="white"/>
</mask>
<g mask="url(#mask12_408_859)">
<path opacity="0.16" d="M298.438 348.48C303.601 353.063 301.88 353.063 300.729 357.086C299.578 361.109 301.59 355.655 306.463 355.946C311.336 356.236 309.905 362.529 309.324 363.68C308.743 364.831 315.348 366.261 314.197 368.832C313.046 371.403 306.463 375.136 302.741 378.868C299.019 382.601 312.476 372.844 317.058 372.565C318.457 372.468 319.608 372.651 320.576 372.629C319.56 369.751 318.255 366.983 316.682 364.368C314.702 361.604 313.519 362.4 313.519 362.4C313.519 362.4 314.315 358.839 313.132 357.656L306.818 351.342L306.592 351.643C305.516 349.491 304.44 347.039 303.257 344.242C299.955 336.465 288.262 314.64 286.294 311.488C284.82 309.132 272.471 307.443 266.211 306.733L266.781 311.714L266.921 311.821C266.921 311.821 274.655 313.252 277.237 313.542C279.818 313.833 282.97 316.113 282.68 317.845C282.389 319.577 274.945 327.3 277.237 327.881C279.528 328.462 282.109 322.148 284.691 323.008C287.273 323.869 293.243 343.898 298.438 348.48Z" fill="black"/>
</g>
<path d="M270.943 347.803C277.849 358.441 291.714 385.398 295.759 388.431C302.073 393.164 344.283 404.652 348.349 407.793C352.415 410.934 352.135 414.086 355.986 415.237C359.837 416.388 374.272 419.69 379.78 420.206C385.287 420.723 382.824 417.313 382.824 417.313L373.433 410.859L381.619 408.837C381.619 408.837 389.827 418.711 391.365 419.249C392.903 419.787 395.614 419.249 395.442 418.034C395.141 416.087 386.385 400.156 383.276 399.478C380.167 398.8 361.3 401.414 361.3 401.414C361.3 401.414 321.726 374.727 321.016 373.78C321.016 373.78 318.649 367.068 316.713 364.304C314.777 361.539 313.55 362.335 313.55 362.335C313.55 362.335 314.346 358.775 313.163 357.591L306.849 351.277L306.623 351.578C305.547 349.427 304.472 346.974 303.288 344.178C299.986 336.4 288.294 314.575 286.325 311.423C284.851 309.068 272.503 307.379 266.242 306.669" stroke="#263238" stroke-linecap="round" stroke-linejoin="round"/>
<path d="M271.052 333.206C270.761 334.174 270.514 335.142 270.32 336.132" stroke="#263238" stroke-linecap="round" stroke-linejoin="round"/>
<path d="M281.506 315.403C278.125 319.256 275.275 323.543 273.029 328.15" stroke="#263238" stroke-linecap="round" stroke-linejoin="round"/>
<path d="M297.309 376.48C300.213 372.178 304.838 366.724 309.937 365.164" stroke="#263238" stroke-linecap="round" stroke-linejoin="round"/>
<path d="M294.092 381.773C294.092 381.773 294.608 380.761 295.533 379.234" stroke="#263238" stroke-linecap="round" stroke-linejoin="round"/>
<path d="M294.092 374.974C294.092 374.974 299.373 361.765 304.655 358.366C309.936 354.967 306.914 361.765 306.914 361.765" stroke="#263238" stroke-linecap="round" stroke-linejoin="round"/>
<path d="M348.348 407.804C352.425 410.956 352.134 414.097 355.985 415.248C359.836 416.399 374.272 419.701 379.779 420.217C385.287 420.734 382.823 417.324 382.823 417.324L373.433 410.87L381.618 408.847C381.618 408.847 389.826 418.722 391.364 419.26C392.902 419.798 395.828 419.991 395.441 418.044C394.688 414.279 386.384 400.167 383.275 399.489C380.166 398.811 361.299 401.425 361.299 401.425C361.299 401.425 325.253 376.685 321.305 374.006C305.998 375.48 298.716 383.494 295.65 388.302L295.758 388.388C302.072 393.164 344.282 404.652 348.348 407.804Z" fill="white"/>
<mask id="mask13_408_859" style="mask-type:luminance" maskUnits="userSpaceOnUse" x="295" y="374" width="101" height="47">
<path d="M348.348 407.804C352.425 410.956 352.134 414.097 355.985 415.248C359.836 416.399 374.272 419.701 379.779 420.217C385.287 420.734 382.823 417.324 382.823 417.324L373.433 410.87L381.618 408.847C381.618 408.847 389.826 418.722 391.364 419.26C392.902 419.798 395.828 419.991 395.441 418.044C394.688 414.279 386.384 400.167 383.275 399.489C380.166 398.811 361.299 401.425 361.299 401.425C361.299 401.425 325.253 376.685 321.305 374.006C305.998 375.48 298.716 383.494 295.65 388.302L295.758 388.388C302.072 393.164 344.282 404.652 348.348 407.804Z" fill="white"/>
</mask>
<g mask="url(#mask13_408_859)">
<path d="M395.432 418.087C393.474 413.301 386.375 400.21 383.266 399.532C380.157 398.854 361.29 401.468 361.29 401.468C361.29 401.468 325.244 376.728 321.296 374.049C317.278 374.399 313.337 375.352 309.604 376.878C315.294 380.105 353.222 401.619 358.009 402.576C363.086 403.652 380.028 400.866 383.008 402.867C384.901 404.136 390.537 413.075 394.345 419.421C395.432 419.26 395.83 419.056 395.432 418.087Z" fill="#165DEE"/>
<path opacity="0.5" d="M395.432 418.087C392.377 411.235 386.375 400.21 383.266 399.532C380.157 398.854 361.29 401.468 361.29 401.468C361.29 401.468 325.244 376.728 321.296 374.049C317.278 374.399 313.337 375.352 309.604 376.878C315.294 380.105 353.222 401.619 358.009 402.576C363.086 403.652 380.028 400.866 383.008 402.867C384.901 404.136 390.537 413.075 394.345 419.421C395.432 419.26 395.862 419.045 395.432 418.087Z" fill="white"/>
</g>
<path d="M348.348 407.804C352.425 410.956 352.134 414.097 355.985 415.248C359.836 416.399 374.272 419.701 379.779 420.217C385.287 420.734 382.823 417.324 382.823 417.324L373.433 410.87L381.618 408.847C381.618 408.847 389.826 418.722 391.364 419.26C392.902 419.798 395.828 419.991 395.441 418.044C394.688 414.279 386.384 400.167 383.275 399.489C380.166 398.811 361.299 401.425 361.299 401.425C361.299 401.425 325.253 376.685 321.305 374.006C305.998 375.48 298.716 383.494 295.65 388.302L295.758 388.388C302.072 393.164 344.282 404.652 348.348 407.804Z" stroke="#263238" stroke-linecap="round" stroke-linejoin="round"/>
<path d="M253.28 219.969L220.881 233.49C220.488 239.185 219.078 244.762 216.718 249.959C212.889 258.059 215.126 273.387 218.805 281.659C222.484 289.931 238.694 286.693 244.621 285.661C248.641 284.896 252.578 283.747 256.378 282.229C258.109 282.896 259.98 283.112 261.817 282.856C263.653 282.6 265.395 281.881 266.877 280.766C266.877 280.766 249.537 232.092 253.28 219.969Z" fill="white"/>
<mask id="mask14_408_859" style="mask-type:luminance" maskUnits="userSpaceOnUse" x="214" y="219" width="53" height="69">
<path d="M253.28 219.969L220.881 233.49C220.488 239.185 219.078 244.762 216.718 249.959C212.889 258.059 215.126 273.387 218.805 281.659C222.484 289.931 238.694 286.693 244.621 285.661C248.641 284.896 252.578 283.747 256.378 282.229C258.109 282.896 259.98 283.112 261.817 282.856C263.653 282.6 265.395 281.881 266.877 280.766C266.877 280.766 249.537 232.092 253.28 219.969Z" fill="white"/>
</mask>
<g mask="url(#mask14_408_859)">
<path d="M253.28 219.969L220.881 233.49C220.488 239.185 219.078 244.762 216.718 249.959C212.889 258.059 215.126 273.387 218.805 281.659C219.421 282.989 220.411 284.111 221.655 284.886V284.262C221.655 284.262 215.642 269.364 216.783 260.77C217.923 252.175 222.806 247.861 223.376 242.429C223.947 236.997 223.656 234.416 234.553 230.403C245.449 226.391 250.021 222.669 251.161 226.671C252.301 230.672 256.895 257.048 260.046 263.351C263.198 269.655 262.908 276.259 258.046 279.11C253.131 282.06 247.866 284.38 242.373 286.016L244.664 285.618C248.684 284.853 252.621 283.704 256.421 282.186C258.152 282.853 260.023 283.069 261.86 282.813C263.696 282.557 265.438 281.838 266.92 280.723C266.92 280.723 249.537 232.092 253.28 219.969Z" fill="#165DEE"/>
<path opacity="0.5" d="M253.28 219.969L220.881 233.49C220.488 239.185 219.078 244.762 216.718 249.959C212.889 258.059 215.126 273.387 218.805 281.659C219.421 282.989 220.411 284.111 221.655 284.886V284.262C221.655 284.262 215.642 269.364 216.783 260.77C217.923 252.175 222.806 247.861 223.376 242.429C223.947 236.997 223.656 234.416 234.553 230.403C245.449 226.391 250.021 222.669 251.161 226.671C252.301 230.672 256.895 257.048 260.046 263.351C263.198 269.655 262.908 276.259 258.046 279.11C253.131 282.06 247.866 284.38 242.373 286.016L244.664 285.618C248.684 284.853 252.621 283.704 256.421 282.186C258.152 282.853 260.023 283.069 261.86 282.813C263.696 282.557 265.438 281.838 266.92 280.723C266.92 280.723 249.537 232.092 253.28 219.969Z" fill="white"/>
</g>
<path d="M253.28 219.969L220.881 233.49C220.488 239.185 219.078 244.762 216.718 249.959C212.889 258.059 215.126 273.387 218.805 281.659C222.484 289.931 238.694 286.693 244.621 285.661C248.641 284.896 252.578 283.747 256.378 282.229C258.109 282.896 259.98 283.112 261.817 282.856C263.653 282.6 265.395 281.881 266.877 280.766C266.877 280.766 249.537 232.092 253.28 219.969Z" stroke="#263238" stroke-linecap="round" stroke-linejoin="round"/>
<path d="M236.908 241.171C236.996 243.076 236.759 244.982 236.209 246.807C235.348 248.959 227.227 257.414 227.474 258.328C227.722 259.242 228.453 262.179 229.895 262.458" stroke="#263238" stroke-linecap="round" stroke-linejoin="round"/>
<path d="M245.91 248.733C247.04 246.474 250.751 248.679 250.697 253.767" stroke="#263238" stroke-linecap="round" stroke-linejoin="round"/>
<path d="M227.518 242.085C227.518 242.085 230.68 240.698 233.509 245.818" stroke="#263238" stroke-linecap="round" stroke-linejoin="round"/>
<path d="M241.414 256.187C245.068 256.371 248.543 257.829 251.235 260.307" stroke="#263238" stroke-width="0.5" stroke-linecap="round" stroke-linejoin="round"/>
<path d="M223.699 249.464C225.589 249.717 227.434 250.227 229.185 250.981" stroke="#263238" stroke-width="0.5" stroke-linecap="round" stroke-linejoin="round"/>
<path d="M236.555 236.395C235.72 235.953 234.793 235.712 233.849 235.689C232.904 235.667 231.968 235.864 231.112 236.266C228.219 237.653 226.444 239.181 226.637 237.406C226.831 235.631 230.23 233.673 231.252 233.415C232.274 233.157 236.846 232.447 236.555 236.395Z" fill="#263238"/>
<path d="M244.662 232.383C247.678 234.822 250.073 237.941 251.654 241.483C253.805 246.861 255.505 240.988 253.805 237.47C252.106 233.953 247.19 230.21 244.662 232.383Z" fill="#263238"/>
<path d="M267.349 289.963C267.349 292.47 265.929 294.503 264.187 294.503C262.444 294.503 261.035 292.47 261.035 289.963C261.035 287.457 262.444 281.078 264.187 281.078C265.929 281.078 267.349 287.457 267.349 289.963Z" fill="#165DEE" stroke="#263238" stroke-linecap="round" stroke-linejoin="round"/>
<path d="M246.192 247.754C246.068 248.083 245.971 248.421 245.901 248.765C245.589 250.357 245.277 253.681 245.901 253.821C246.525 253.961 248.053 250.852 248.321 249.26C248.382 248.948 248.418 248.631 248.429 248.313C247.695 248.083 246.948 247.896 246.192 247.754Z" fill="#263238"/>
<path d="M227.84 241.773C227.744 242.054 227.669 242.342 227.614 242.634C227.291 244.226 227.302 247.722 227.98 247.851C228.657 247.98 229.765 244.71 230.077 243.118C230.155 242.732 230.198 242.339 230.206 241.945C229.436 241.734 228.632 241.675 227.84 241.773Z" fill="#263238"/>
<path d="M245.91 248.787L246.986 246.786C248.691 247.118 250.236 248.012 251.375 249.324" stroke="#263238" stroke-width="0.75" stroke-linecap="round" stroke-linejoin="round"/>
<path d="M227.84 241.773L228.916 240.515C228.916 240.515 229.378 240.289 231.917 241.44" stroke="#263238" stroke-width="0.75" stroke-linecap="round" stroke-linejoin="round"/>
<path d="M223.764 270.946C223.764 270.946 225.571 267.622 227.991 267.622C230.411 267.622 232.218 273.054 232.218 273.054" stroke="#263238" stroke-linecap="round" stroke-linejoin="round"/>
<path d="M135.589 416.29C133.25 416.174 130.953 415.627 128.813 414.677C128.514 414.566 128.241 414.396 128.011 414.177C127.78 413.958 127.596 413.694 127.471 413.402C127.345 413.109 127.281 412.795 127.281 412.476C127.281 412.158 127.346 411.843 127.472 411.551C127.597 411.259 127.781 410.995 128.012 410.776C128.243 410.557 128.516 410.387 128.814 410.277C129.113 410.167 129.431 410.119 129.749 410.136C130.066 410.152 130.377 410.233 130.663 410.374C132.814 411.288 135.6 411.858 136.342 411.536C137.708 410.008 139.806 400.779 137.095 396.326C136.482 395.336 135.912 395.153 135.536 395.11C133.997 394.895 131.717 396.476 130.91 397.262C130.686 397.473 130.421 397.639 130.133 397.749C129.844 397.859 129.537 397.911 129.228 397.902C128.92 397.893 128.616 397.823 128.334 397.696C128.052 397.57 127.798 397.389 127.586 397.165C127.374 396.94 127.209 396.676 127.099 396.387C126.989 396.099 126.937 395.791 126.946 395.483C126.955 395.174 127.025 394.87 127.151 394.589C127.278 394.307 127.458 394.053 127.683 393.841C128.103 393.432 131.986 389.936 136.127 390.496C137.154 390.646 138.133 391.03 138.987 391.62C139.842 392.209 140.549 392.988 141.054 393.895C145.045 400.403 142.312 412.784 139.247 415.236C138.181 415.99 136.892 416.361 135.589 416.29Z" fill="white"/>
<mask id="mask15_408_859" style="mask-type:luminance" maskUnits="userSpaceOnUse" x="126" y="390" width="18" height="27">
<path d="M135.591 416.29C133.252 416.174 130.955 415.627 128.815 414.677C128.516 414.566 128.243 414.396 128.013 414.177C127.782 413.958 127.598 413.694 127.473 413.402C127.347 413.109 127.283 412.795 127.283 412.476C127.283 412.158 127.348 411.843 127.474 411.551C127.599 411.259 127.783 410.995 128.014 410.776C128.245 410.557 128.518 410.387 128.816 410.277C129.115 410.167 129.433 410.119 129.75 410.136C130.068 410.152 130.379 410.233 130.665 410.374C132.816 411.288 135.602 411.858 136.344 411.536C137.71 410.008 139.808 400.779 137.097 396.326C136.484 395.336 135.914 395.153 135.537 395.11C133.999 394.895 131.719 396.476 130.912 397.262C130.687 397.473 130.423 397.639 130.135 397.749C129.846 397.859 129.539 397.911 129.23 397.902C128.921 397.893 128.618 397.823 128.336 397.696C128.054 397.57 127.8 397.389 127.588 397.165C127.376 396.94 127.211 396.676 127.101 396.387C126.991 396.099 126.939 395.791 126.948 395.483C126.957 395.174 127.027 394.87 127.153 394.589C127.28 394.307 127.46 394.053 127.685 393.841C128.105 393.432 131.988 389.936 136.129 390.496C137.156 390.646 138.135 391.03 138.989 391.62C139.844 392.209 140.551 392.988 141.056 393.895C145.046 400.403 142.314 412.784 139.249 415.236C138.183 415.99 136.894 416.361 135.591 416.29Z" fill="white"/>
</mask>
<g mask="url(#mask15_408_859)">
<path d="M138.743 395.616C138.461 394.948 138.019 394.359 137.456 393.901C136.894 393.444 136.227 393.131 135.516 392.991C132.827 392.561 130.299 395.261 130.019 395.562C129.762 395.872 129.603 396.251 129.563 396.652C129.523 397.052 129.603 397.455 129.793 397.81C130.216 397.725 130.607 397.524 130.923 397.229C131.729 396.476 134.01 394.895 135.548 395.078C135.925 395.078 136.495 395.304 137.108 396.293C139.818 400.704 137.721 409.976 136.355 411.503C135.613 411.826 132.837 411.256 130.675 410.342C130.409 410.23 130.125 410.168 129.836 410.159C129.856 410.454 129.949 410.739 130.107 410.989C130.264 411.239 130.482 411.445 130.74 411.59C132.1 412.316 133.6 412.742 135.139 412.837C136.017 412.879 136.878 412.579 137.538 411.998C139.56 410.137 141.346 400.618 138.743 395.616Z" fill="#165DEE"/>
<path opacity="0.5" d="M138.743 395.616C138.461 394.948 138.019 394.359 137.456 393.901C136.894 393.444 136.227 393.131 135.516 392.991C132.827 392.561 130.299 395.261 130.019 395.562C129.762 395.872 129.603 396.251 129.563 396.652C129.523 397.052 129.603 397.455 129.793 397.81C130.216 397.725 130.607 397.524 130.923 397.229C131.729 396.476 134.01 394.895 135.548 395.078C135.925 395.078 136.495 395.304 137.108 396.293C139.818 400.704 137.721 409.976 136.355 411.503C135.613 411.826 132.837 411.256 130.675 410.342C130.409 410.23 130.125 410.168 129.836 410.159C129.856 410.454 129.949 410.739 130.107 410.989C130.264 411.239 130.482 411.445 130.74 411.59C132.1 412.316 133.6 412.742 135.139 412.837C136.017 412.879 136.878 412.579 137.538 411.998C139.56 410.137 141.346 400.618 138.743 395.616Z" fill="white"/>
</g>
<path d="M135.589 416.29C133.25 416.174 130.953 415.627 128.813 414.677C128.514 414.566 128.241 414.396 128.011 414.177C127.78 413.958 127.596 413.694 127.471 413.402C127.345 413.109 127.281 412.795 127.281 412.476C127.281 412.158 127.346 411.843 127.472 411.551C127.597 411.259 127.781 410.995 128.012 410.776C128.243 410.557 128.516 410.387 128.814 410.277C129.113 410.167 129.431 410.119 129.749 410.136C130.066 410.152 130.377 410.233 130.663 410.374C132.814 411.288 135.6 411.858 136.342 411.536C137.708 410.008 139.806 400.779 137.095 396.326C136.482 395.336 135.912 395.153 135.536 395.11C133.997 394.895 131.717 396.476 130.91 397.262C130.686 397.473 130.421 397.639 130.133 397.749C129.844 397.859 129.537 397.911 129.228 397.902C128.92 397.893 128.616 397.823 128.334 397.696C128.052 397.57 127.798 397.389 127.586 397.165C127.374 396.94 127.209 396.676 127.099 396.387C126.989 396.099 126.937 395.791 126.946 395.483C126.955 395.174 127.025 394.87 127.151 394.589C127.278 394.307 127.458 394.053 127.683 393.841C128.103 393.432 131.986 389.936 136.127 390.496C137.154 390.646 138.133 391.03 138.987 391.62C139.842 392.209 140.549 392.988 141.054 393.895C145.045 400.403 142.312 412.784 139.247 415.236C138.181 415.99 136.892 416.361 135.589 416.29Z" stroke="#263238" stroke-linecap="round" stroke-linejoin="round"/>
<path d="M131.481 388.538H105.611V422.873H131.481V388.538Z" fill="white"/>
<mask id="mask16_408_859" style="mask-type:luminance" maskUnits="userSpaceOnUse" x="105" y="388" width="27" height="35">
<path d="M131.481 388.538H105.611V422.873H131.481V388.538Z" fill="white"/>
</mask>
<g mask="url(#mask16_408_859)">
<path d="M116.207 388.538H105.611V422.873H116.207V388.538Z" fill="#165DEE"/>
<path opacity="0.5" d="M116.207 388.538H105.611V422.873H116.207V388.538Z" fill="white"/>
</g>
<path d="M131.481 388.538H105.611V422.873H131.481V388.538Z" stroke="#263238" stroke-linecap="round" stroke-linejoin="round"/>
<path d="M273.641 422.4H163.126L159.523 361.646C159.423 361.057 159.452 360.453 159.609 359.877C159.765 359.3 160.045 358.764 160.428 358.306C160.812 357.848 161.29 357.478 161.83 357.223C162.37 356.968 162.959 356.832 163.556 356.827H273.168C273.769 356.826 274.363 356.957 274.908 357.21C275.454 357.462 275.937 357.831 276.325 358.29C276.714 358.748 276.997 359.287 277.156 359.866C277.315 360.446 277.345 361.053 277.245 361.646L273.641 422.4Z" fill="#263238" stroke="#263238" stroke-linecap="round" stroke-linejoin="round"/>
<path d="M168.568 358.279H272.371C272.958 358.273 273.538 358.395 274.072 358.637C274.607 358.879 275.081 359.235 275.464 359.68C275.846 360.124 276.126 360.647 276.285 361.212C276.444 361.776 276.478 362.369 276.383 362.947" stroke="white" stroke-linecap="round" stroke-linejoin="round"/>
<path d="M160.33 361.99C160.417 360.973 160.883 360.027 161.637 359.339C162.391 358.651 163.376 358.273 164.396 358.279" stroke="white" stroke-linecap="round" stroke-linejoin="round"/>
<path d="M274.104 416.484H162.664V422.4H274.104V416.484Z" fill="white" stroke="#263238" stroke-linecap="round" stroke-linejoin="round"/>
<path d="M217.987 394.583C222.348 394.583 225.883 392.464 225.883 389.85C225.883 387.236 222.348 385.117 217.987 385.117C213.627 385.117 210.092 387.236 210.092 389.85C210.092 392.464 213.627 394.583 217.987 394.583Z" fill="white" stroke="#263238" stroke-linecap="round" stroke-linejoin="round"/>
<path d="M442.19 421.701H27.1289V431.78H442.19V421.701Z" fill="#263238"/>
<path d="M344.852 46H145.174C138.443 46 132.986 51.4565 132.986 58.1874V172.758C132.986 179.489 138.443 184.945 145.174 184.945H344.852C351.583 184.945 357.039 179.489 357.039 172.758V58.1874C357.039 51.4565 351.583 46 344.852 46Z" fill="#165DEE"/>
<path d="M250.281 125.848C268.394 122.937 280.717 105.894 277.806 87.7809C274.895 69.6681 257.852 57.3446 239.739 60.2555C221.627 63.1664 209.303 80.2095 212.214 98.3223C215.125 116.435 232.168 128.759 250.281 125.848Z" fill="#263238"/>
<path d="M244.76 99.1922L233.691 113.402C233.315 113.993 232.797 114.482 232.185 114.824C231.573 115.166 230.885 115.35 230.184 115.36C229.223 115.373 228.295 115.005 227.603 114.338C227.251 114.015 226.972 113.62 226.787 113.18C226.601 112.74 226.513 112.266 226.527 111.788C226.562 110.72 226.939 109.69 227.603 108.852L240.22 93.2437L228.388 77.6249C227.838 76.8919 227.537 76.0026 227.527 75.0863C227.524 74.5399 227.635 73.9988 227.851 73.4971C228.068 72.9954 228.386 72.5439 228.786 72.1712C229.161 71.7794 229.612 71.4677 230.111 71.2551C230.61 71.0424 231.148 70.9333 231.69 70.9342C232.385 70.9455 233.066 71.1305 233.671 71.4725C234.276 71.8144 234.786 72.3024 235.154 72.8919L245.846 86.9725L256.603 73.1286C256.987 72.4827 257.525 71.9416 258.169 71.5532C258.812 71.1649 259.542 70.9411 260.292 70.9019C260.758 70.9008 261.219 70.9957 261.647 71.1808C262.074 71.3659 262.459 71.6371 262.777 71.9776C263.116 72.2968 263.386 72.6818 263.571 73.109C263.756 73.5363 263.852 73.9968 263.853 74.4624C263.841 75.2956 263.554 76.1014 263.035 76.7536L250.375 92.9533L262.605 109.088C263.183 109.81 263.505 110.703 263.519 111.627C263.523 112.161 263.41 112.69 263.189 113.177C262.968 113.664 262.644 114.096 262.239 114.445C261.45 115.204 260.398 115.628 259.303 115.629C258.604 115.62 257.919 115.436 257.311 115.094C256.702 114.752 256.188 114.263 255.818 113.671L244.76 99.1922Z" fill="white"/>
<path d="M308.299 160.882H181.681C179.114 160.882 176.651 159.862 174.836 158.047C173.02 156.231 172 153.769 172 151.201C172 148.634 173.02 146.171 174.836 144.356C176.651 142.54 179.114 141.52 181.681 141.52H308.299C310.867 141.52 313.329 142.54 315.145 144.356C316.96 146.171 317.98 148.634 317.98 151.201C317.98 153.769 316.96 156.231 315.145 158.047C313.329 159.862 310.867 160.882 308.299 160.882Z" fill="white"/>
<path d="M199.034 154.321C198.95 154.321 198.866 154.304 198.789 154.27C198.711 154.237 198.641 154.188 198.583 154.127C198.519 154.064 198.469 153.988 198.436 153.905C198.402 153.822 198.387 153.733 198.389 153.643C198.389 153.492 198.43 153.343 198.507 153.213L199.475 151.707H197.496C197.405 151.711 197.313 151.697 197.228 151.663C197.143 151.63 197.065 151.579 197.001 151.513C196.891 151.384 196.83 151.22 196.83 151.051C196.83 150.881 196.891 150.717 197.001 150.588C197.065 150.523 197.143 150.471 197.228 150.438C197.313 150.405 197.405 150.39 197.496 150.394L199.443 150.448L198.583 149.05C198.496 148.907 198.448 148.744 198.443 148.577C198.44 148.487 198.456 148.398 198.49 148.314C198.523 148.231 198.573 148.156 198.636 148.093C198.697 148.031 198.769 147.982 198.848 147.949C198.928 147.916 199.013 147.899 199.099 147.899C199.219 147.897 199.338 147.931 199.439 147.996C199.541 148.061 199.621 148.154 199.669 148.265L200.616 149.953L201.519 148.34C201.576 148.214 201.666 148.107 201.78 148.029C201.894 147.951 202.027 147.906 202.165 147.899C202.249 147.899 202.333 147.916 202.41 147.949C202.488 147.983 202.558 148.031 202.616 148.093C202.68 148.152 202.729 148.223 202.763 148.303C202.796 148.383 202.812 148.469 202.81 148.555C202.809 148.708 202.764 148.857 202.681 148.985L201.734 150.502L203.703 150.448C203.794 150.443 203.886 150.457 203.972 150.491C204.057 150.524 204.134 150.576 204.198 150.642C204.308 150.771 204.369 150.935 204.369 151.104C204.369 151.274 204.308 151.438 204.198 151.567C204.134 151.633 204.057 151.685 203.972 151.718C203.886 151.751 203.794 151.766 203.703 151.761H201.713L202.595 153.137C202.694 153.304 202.75 153.492 202.756 153.686C202.759 153.773 202.745 153.86 202.713 153.941C202.682 154.023 202.634 154.097 202.573 154.159C202.517 154.22 202.449 154.268 202.373 154.301C202.297 154.335 202.215 154.352 202.132 154.353C201.999 154.35 201.87 154.308 201.759 154.234C201.649 154.16 201.562 154.056 201.509 153.933L200.616 152.352L199.723 153.933C199.658 154.058 199.559 154.161 199.436 154.23C199.314 154.299 199.174 154.33 199.034 154.321Z" fill="black"/>
<path d="M208.908 154.321C208.823 154.321 208.739 154.304 208.662 154.27C208.584 154.237 208.514 154.188 208.456 154.127C208.392 154.064 208.342 153.988 208.309 153.905C208.275 153.822 208.26 153.733 208.262 153.643C208.262 153.492 208.303 153.343 208.38 153.213L209.349 151.707H207.369C207.278 151.711 207.186 151.697 207.101 151.663C207.016 151.63 206.938 151.579 206.874 151.513C206.764 151.384 206.703 151.22 206.703 151.051C206.703 150.881 206.764 150.717 206.874 150.588C206.938 150.523 207.016 150.471 207.101 150.438C207.186 150.405 207.278 150.39 207.369 150.394L209.316 150.448L208.402 148.996C208.316 148.853 208.268 148.69 208.262 148.523C208.26 148.433 208.275 148.344 208.309 148.261C208.342 148.177 208.392 148.102 208.456 148.039C208.516 147.977 208.588 147.928 208.667 147.895C208.747 147.862 208.832 147.845 208.918 147.845C209.039 147.843 209.157 147.877 209.258 147.942C209.36 148.007 209.44 148.101 209.488 148.211L210.435 149.9L211.339 148.286C211.395 148.161 211.486 148.053 211.6 147.975C211.713 147.898 211.846 147.852 211.984 147.845C212.068 147.845 212.152 147.862 212.23 147.896C212.307 147.929 212.377 147.978 212.436 148.039C212.499 148.098 212.549 148.17 212.582 148.249C212.615 148.329 212.631 148.415 212.629 148.501C212.628 148.654 212.583 148.803 212.5 148.932L211.554 150.448L213.522 150.394C213.614 150.389 213.705 150.404 213.791 150.437C213.876 150.47 213.953 150.522 214.017 150.588C214.128 150.717 214.188 150.881 214.188 151.051C214.188 151.22 214.128 151.384 214.017 151.513C213.953 151.579 213.876 151.631 213.791 151.664C213.705 151.698 213.614 151.712 213.522 151.707H211.532L212.414 153.084C212.514 153.25 212.569 153.439 212.576 153.632C212.579 153.719 212.564 153.806 212.533 153.888C212.501 153.969 212.454 154.043 212.393 154.106C212.336 154.166 212.268 154.214 212.192 154.247C212.116 154.281 212.034 154.298 211.952 154.299C211.818 154.297 211.688 154.257 211.577 154.182C211.467 154.108 211.38 154.003 211.328 153.88L210.435 152.298L209.542 153.88C209.489 154.006 209.401 154.114 209.289 154.192C209.177 154.271 209.044 154.315 208.908 154.321Z" fill="black"/>
<path d="M218.783 154.321C218.698 154.321 218.614 154.304 218.537 154.27C218.459 154.237 218.389 154.188 218.331 154.127C218.267 154.064 218.217 153.988 218.184 153.905C218.15 153.822 218.135 153.733 218.137 153.643C218.137 153.492 218.178 153.343 218.255 153.213L219.224 151.707H217.244C217.153 151.711 217.061 151.697 216.976 151.663C216.891 151.63 216.813 151.579 216.749 151.513C216.639 151.384 216.578 151.22 216.578 151.051C216.578 150.881 216.639 150.717 216.749 150.588C216.813 150.523 216.891 150.471 216.976 150.438C217.061 150.405 217.153 150.39 217.244 150.394L219.191 150.448L218.277 148.996C218.191 148.853 218.143 148.69 218.137 148.523C218.135 148.433 218.15 148.344 218.184 148.261C218.217 148.177 218.267 148.102 218.331 148.039C218.391 147.977 218.463 147.928 218.542 147.895C218.622 147.862 218.707 147.845 218.793 147.845C218.914 147.843 219.032 147.877 219.133 147.942C219.235 148.007 219.315 148.101 219.363 148.211L220.31 149.9L221.214 148.286C221.27 148.161 221.361 148.053 221.475 147.975C221.588 147.898 221.721 147.852 221.859 147.845C221.943 147.845 222.027 147.862 222.105 147.896C222.182 147.929 222.252 147.978 222.311 148.039C222.374 148.098 222.424 148.17 222.457 148.249C222.49 148.329 222.507 148.415 222.504 148.501C222.503 148.654 222.458 148.803 222.375 148.932L221.429 150.448L223.397 150.394C223.489 150.389 223.58 150.404 223.666 150.437C223.751 150.47 223.828 150.522 223.892 150.588C224.003 150.717 224.063 150.881 224.063 151.051C224.063 151.22 224.003 151.384 223.892 151.513C223.828 151.579 223.751 151.631 223.666 151.664C223.58 151.698 223.489 151.712 223.397 151.707H221.407L222.289 153.084C222.389 153.25 222.444 153.439 222.451 153.632C222.454 153.719 222.439 153.806 222.408 153.888C222.376 153.969 222.329 154.043 222.268 154.106C222.211 154.166 222.143 154.214 222.067 154.247C221.991 154.281 221.909 154.298 221.827 154.299C221.693 154.297 221.563 154.257 221.452 154.182C221.342 154.108 221.255 154.003 221.203 153.88L220.31 152.298L219.417 153.88C219.364 154.006 219.276 154.114 219.164 154.192C219.052 154.271 218.919 154.315 218.783 154.321Z" fill="black"/>
<path d="M228.7 154.321C228.616 154.321 228.532 154.304 228.455 154.27C228.377 154.237 228.307 154.188 228.249 154.127C228.185 154.064 228.135 153.988 228.102 153.905C228.068 153.822 228.053 153.733 228.055 153.643C228.055 153.492 228.096 153.343 228.173 153.213L229.142 151.707H227.162C227.071 151.711 226.979 151.697 226.894 151.663C226.809 151.63 226.731 151.579 226.667 151.513C226.557 151.384 226.496 151.22 226.496 151.051C226.496 150.881 226.557 150.717 226.667 150.588C226.731 150.523 226.809 150.471 226.894 150.438C226.979 150.405 227.071 150.39 227.162 150.394L229.109 150.448L228.195 148.996C228.109 148.853 228.06 148.69 228.055 148.523C228.053 148.433 228.068 148.344 228.102 148.261C228.135 148.177 228.185 148.102 228.249 148.039C228.309 147.977 228.381 147.928 228.46 147.895C228.54 147.862 228.625 147.845 228.711 147.845C228.832 147.843 228.95 147.877 229.051 147.942C229.153 148.007 229.233 148.101 229.281 148.211L230.228 149.9L231.132 148.286C231.188 148.161 231.279 148.053 231.392 147.975C231.506 147.898 231.639 147.852 231.777 147.845C231.861 147.845 231.945 147.862 232.023 147.896C232.1 147.929 232.17 147.978 232.229 148.039C232.292 148.098 232.342 148.17 232.375 148.249C232.408 148.329 232.424 148.415 232.422 148.501C232.421 148.654 232.376 148.803 232.293 148.932L231.347 150.448L233.315 150.394C233.407 150.389 233.498 150.404 233.584 150.437C233.669 150.47 233.746 150.522 233.81 150.588C233.921 150.717 233.981 150.881 233.981 151.051C233.981 151.22 233.921 151.384 233.81 151.513C233.746 151.579 233.669 151.631 233.584 151.664C233.498 151.698 233.407 151.712 233.315 151.707H231.325L232.207 153.084C232.307 153.25 232.362 153.439 232.369 153.632C232.372 153.719 232.357 153.806 232.326 153.888C232.294 153.969 232.247 154.043 232.186 154.106C232.129 154.166 232.061 154.214 231.985 154.247C231.909 154.281 231.827 154.298 231.745 154.299C231.611 154.296 231.482 154.255 231.372 154.18C231.261 154.106 231.174 154.002 231.121 153.88L230.228 152.298L229.335 153.88C229.282 154.006 229.194 154.114 229.082 154.192C228.97 154.271 228.837 154.315 228.7 154.321Z" fill="black"/>
<path d="M238.531 154.321C238.446 154.321 238.362 154.304 238.285 154.27C238.207 154.237 238.137 154.188 238.079 154.127C238.015 154.064 237.965 153.988 237.932 153.905C237.899 153.822 237.883 153.733 237.885 153.643C237.89 153.492 237.931 153.345 238.003 153.213L238.972 151.707H236.992C236.901 151.711 236.809 151.697 236.724 151.663C236.639 151.63 236.562 151.579 236.498 151.513C236.387 151.384 236.326 151.22 236.326 151.051C236.326 150.881 236.387 150.717 236.498 150.588C236.562 150.523 236.639 150.471 236.724 150.438C236.809 150.405 236.901 150.39 236.992 150.394L238.939 150.448L238.025 148.996C237.939 148.853 237.891 148.69 237.885 148.523C237.883 148.433 237.899 148.344 237.932 148.261C237.965 148.177 238.015 148.102 238.079 148.039C238.139 147.977 238.211 147.928 238.29 147.895C238.37 147.862 238.455 147.845 238.541 147.845C238.662 147.843 238.78 147.877 238.881 147.942C238.983 148.007 239.063 148.101 239.111 148.211L240.058 149.9L240.962 148.286C241.018 148.161 241.109 148.053 241.223 147.975C241.336 147.898 241.469 147.852 241.607 147.845C241.692 147.844 241.776 147.86 241.854 147.894C241.931 147.927 242.001 147.977 242.059 148.039C242.122 148.098 242.172 148.17 242.205 148.249C242.238 148.329 242.255 148.415 242.252 148.501C242.251 148.654 242.206 148.803 242.123 148.932L241.177 150.448L243.145 150.394C243.237 150.389 243.328 150.404 243.414 150.437C243.499 150.47 243.576 150.522 243.64 150.588C243.751 150.717 243.811 150.881 243.811 151.051C243.811 151.22 243.751 151.384 243.64 151.513C243.576 151.579 243.499 151.631 243.414 151.664C243.328 151.698 243.237 151.712 243.145 151.707H241.155L242.037 153.084C242.137 153.25 242.192 153.439 242.199 153.632C242.202 153.719 242.187 153.806 242.156 153.888C242.124 153.969 242.077 154.043 242.016 154.106C241.959 154.166 241.891 154.214 241.815 154.247C241.739 154.281 241.658 154.298 241.575 154.299C241.442 154.296 241.312 154.255 241.202 154.18C241.091 154.106 241.004 154.002 240.951 153.88L240.058 152.298L239.165 153.88C239.112 154.006 239.024 154.114 238.912 154.192C238.8 154.271 238.667 154.315 238.531 154.321Z" fill="black"/>
<path d="M248.406 154.321C248.321 154.321 248.237 154.304 248.16 154.27C248.082 154.237 248.012 154.188 247.954 154.127C247.89 154.064 247.84 153.988 247.807 153.905C247.774 153.822 247.758 153.733 247.76 153.643C247.765 153.492 247.806 153.345 247.878 153.213L248.847 151.707H246.878C246.785 151.712 246.692 151.698 246.604 151.665C246.517 151.631 246.438 151.58 246.373 151.513C246.262 151.384 246.201 151.22 246.201 151.051C246.201 150.881 246.262 150.717 246.373 150.588C246.438 150.522 246.517 150.47 246.604 150.437C246.692 150.403 246.785 150.389 246.878 150.394L248.814 150.448L247.9 148.996C247.814 148.853 247.766 148.69 247.76 148.523C247.758 148.433 247.774 148.344 247.807 148.261C247.84 148.177 247.89 148.102 247.954 148.039C248.014 147.977 248.086 147.928 248.165 147.895C248.245 147.862 248.33 147.845 248.416 147.845C248.537 147.843 248.655 147.877 248.756 147.942C248.858 148.007 248.938 148.101 248.986 148.211L249.933 149.9L250.837 148.286C250.893 148.161 250.984 148.053 251.098 147.975C251.211 147.898 251.344 147.852 251.482 147.845C251.567 147.844 251.651 147.86 251.729 147.894C251.806 147.927 251.876 147.977 251.934 148.039C251.997 148.098 252.047 148.17 252.08 148.249C252.113 148.329 252.13 148.415 252.127 148.501C252.126 148.654 252.081 148.803 251.998 148.932L251.052 150.448L253.02 150.394C253.112 150.389 253.203 150.404 253.289 150.437C253.374 150.47 253.451 150.522 253.515 150.588C253.626 150.717 253.686 150.881 253.686 151.051C253.686 151.22 253.626 151.384 253.515 151.513C253.451 151.579 253.374 151.631 253.289 151.664C253.203 151.698 253.112 151.712 253.02 151.707H251.03L251.912 153.084C252.012 153.25 252.067 153.439 252.074 153.632C252.077 153.719 252.062 153.806 252.031 153.888C251.999 153.969 251.952 154.043 251.891 154.106C251.834 154.166 251.766 154.214 251.69 154.247C251.614 154.281 251.532 154.298 251.45 154.299C251.317 154.296 251.187 154.255 251.077 154.18C250.966 154.106 250.879 154.002 250.826 153.88L249.933 152.298L249.04 153.88C248.987 154.006 248.899 154.114 248.787 154.192C248.675 154.271 248.542 154.315 248.406 154.321Z" fill="black"/>
<path d="M258.282 154.321C258.198 154.321 258.114 154.304 258.037 154.27C257.959 154.237 257.889 154.188 257.831 154.127C257.767 154.064 257.717 153.988 257.684 153.905C257.65 153.822 257.635 153.733 257.637 153.643C257.637 153.492 257.678 153.343 257.755 153.213L258.724 151.707H256.744C256.653 151.711 256.561 151.697 256.476 151.663C256.391 151.63 256.313 151.579 256.249 151.513C256.139 151.384 256.078 151.22 256.078 151.051C256.078 150.881 256.139 150.717 256.249 150.588C256.313 150.523 256.391 150.471 256.476 150.438C256.561 150.405 256.653 150.39 256.744 150.394L258.691 150.448L257.745 149.05C257.658 148.907 257.61 148.744 257.605 148.577C257.602 148.487 257.618 148.398 257.651 148.314C257.685 148.231 257.735 148.156 257.798 148.093C257.859 148.031 257.931 147.982 258.01 147.949C258.09 147.916 258.175 147.899 258.261 147.899C258.381 147.897 258.5 147.931 258.601 147.996C258.703 148.061 258.783 148.154 258.831 148.265L259.778 149.953L260.681 148.34C260.738 148.214 260.828 148.107 260.942 148.029C261.056 147.951 261.189 147.906 261.327 147.899C261.411 147.898 261.495 147.914 261.573 147.948C261.651 147.981 261.721 148.03 261.778 148.093C261.841 148.152 261.891 148.223 261.925 148.303C261.958 148.383 261.974 148.469 261.972 148.555C261.971 148.708 261.926 148.857 261.843 148.985L260.896 150.502L262.865 150.448C262.956 150.443 263.048 150.457 263.134 150.491C263.219 150.524 263.296 150.576 263.36 150.642C263.47 150.771 263.531 150.935 263.531 151.104C263.531 151.274 263.47 151.438 263.36 151.567C263.296 151.633 263.219 151.685 263.134 151.718C263.048 151.751 262.956 151.766 262.865 151.761H260.875L261.757 153.137C261.856 153.304 261.912 153.492 261.918 153.686C261.921 153.773 261.907 153.86 261.875 153.941C261.844 154.023 261.796 154.097 261.735 154.159C261.679 154.22 261.611 154.268 261.535 154.301C261.459 154.335 261.377 154.352 261.294 154.353C261.161 154.35 261.032 154.308 260.921 154.234C260.811 154.16 260.724 154.056 260.67 153.933L259.778 152.352L258.885 153.933C258.827 154.045 258.741 154.139 258.635 154.207C258.53 154.275 258.408 154.314 258.282 154.321Z" fill="black"/>
<path d="M268.158 154.321C268.073 154.321 267.99 154.304 267.912 154.27C267.834 154.237 267.764 154.188 267.706 154.127C267.642 154.064 267.592 153.988 267.559 153.905C267.526 153.822 267.51 153.733 267.512 153.643C267.517 153.492 267.558 153.345 267.631 153.213L268.599 151.707H266.63C266.539 151.714 266.447 151.7 266.361 151.666C266.275 151.633 266.198 151.58 266.136 151.513C266.018 151.388 265.953 151.222 265.953 151.051C265.953 150.879 266.018 150.714 266.136 150.588C266.198 150.521 266.275 150.468 266.361 150.435C266.447 150.401 266.539 150.388 266.63 150.394L268.567 150.448L267.652 148.996C267.566 148.853 267.518 148.69 267.512 148.523C267.509 148.435 267.524 148.347 267.556 148.265C267.588 148.183 267.636 148.108 267.697 148.045C267.758 147.982 267.831 147.931 267.912 147.897C267.993 147.863 268.081 147.845 268.169 147.845C268.289 147.843 268.407 147.877 268.509 147.942C268.61 148.007 268.69 148.101 268.739 148.211L269.685 149.9L270.589 148.286C270.646 148.161 270.736 148.053 270.85 147.975C270.964 147.898 271.097 147.852 271.234 147.845C271.319 147.842 271.404 147.858 271.482 147.892C271.56 147.925 271.629 147.975 271.686 148.039C271.749 148.098 271.799 148.17 271.832 148.249C271.866 148.329 271.882 148.415 271.88 148.501C271.878 148.654 271.833 148.803 271.751 148.932L270.804 150.448L272.772 150.394C272.864 150.389 272.956 150.404 273.041 150.437C273.127 150.47 273.204 150.522 273.267 150.588C273.378 150.717 273.439 150.881 273.439 151.051C273.439 151.22 273.378 151.384 273.267 151.513C273.204 151.579 273.127 151.631 273.041 151.664C272.956 151.698 272.864 151.712 272.772 151.707H270.782L271.665 153.084C271.764 153.25 271.82 153.439 271.826 153.632C271.829 153.717 271.815 153.802 271.785 153.881C271.755 153.96 271.71 154.033 271.652 154.095C271.594 154.157 271.525 154.207 271.447 154.242C271.37 154.277 271.287 154.296 271.202 154.299C271.069 154.296 270.939 154.255 270.829 154.18C270.718 154.106 270.631 154.002 270.578 153.88L269.685 152.298L268.792 153.88C268.739 154.006 268.652 154.114 268.539 154.192C268.427 154.271 268.295 154.315 268.158 154.321Z" fill="black"/>
<path d="M278.031 154.321C277.946 154.321 277.863 154.304 277.785 154.27C277.707 154.237 277.637 154.188 277.579 154.127C277.515 154.064 277.465 153.988 277.432 153.905C277.399 153.822 277.383 153.733 277.385 153.643C277.39 153.492 277.431 153.345 277.504 153.213L278.472 151.707H276.493C276.403 151.712 276.313 151.697 276.229 151.664C276.145 151.631 276.07 151.579 276.009 151.513C275.891 151.388 275.826 151.222 275.826 151.051C275.826 150.879 275.891 150.714 276.009 150.588C276.07 150.522 276.145 150.471 276.229 150.437C276.313 150.404 276.403 150.389 276.493 150.394L278.44 150.448L277.525 148.996C277.439 148.853 277.391 148.69 277.385 148.523C277.383 148.435 277.397 148.347 277.429 148.265C277.461 148.183 277.509 148.108 277.57 148.045C277.631 147.982 277.704 147.931 277.785 147.897C277.866 147.863 277.954 147.845 278.042 147.845C278.162 147.843 278.28 147.877 278.382 147.942C278.483 148.007 278.563 148.101 278.612 148.211L279.558 149.9L280.462 148.286C280.519 148.161 280.609 148.053 280.723 147.975C280.837 147.898 280.97 147.852 281.107 147.845C281.192 147.842 281.277 147.858 281.355 147.892C281.433 147.925 281.503 147.975 281.559 148.039C281.622 148.098 281.672 148.17 281.705 148.249C281.739 148.329 281.755 148.415 281.753 148.501C281.751 148.654 281.707 148.803 281.624 148.932L280.677 150.448L282.646 150.394C282.737 150.389 282.829 150.404 282.914 150.437C283 150.47 283.077 150.522 283.14 150.588C283.251 150.717 283.312 150.881 283.312 151.051C283.312 151.22 283.251 151.384 283.14 151.513C283.077 151.579 283 151.631 282.914 151.664C282.829 151.698 282.737 151.712 282.646 151.707H280.655L281.538 153.084C281.637 153.25 281.693 153.439 281.699 153.632C281.702 153.717 281.688 153.802 281.658 153.881C281.628 153.96 281.583 154.033 281.525 154.095C281.467 154.157 281.398 154.207 281.32 154.242C281.243 154.277 281.16 154.296 281.075 154.299C280.942 154.296 280.812 154.255 280.702 154.18C280.591 154.106 280.504 154.002 280.451 153.88L279.558 152.298L278.666 153.88C278.613 154.006 278.525 154.114 278.412 154.192C278.3 154.271 278.168 154.315 278.031 154.321Z" fill="black"/>
<path d="M287.861 154.321C287.776 154.321 287.693 154.304 287.615 154.27C287.537 154.237 287.467 154.188 287.409 154.127C287.345 154.064 287.295 153.988 287.262 153.905C287.229 153.822 287.213 153.733 287.216 153.643C287.22 153.492 287.261 153.345 287.334 153.213L288.302 151.707H286.323C286.233 151.712 286.143 151.697 286.059 151.664C285.975 151.631 285.9 151.579 285.839 151.513C285.721 151.388 285.656 151.222 285.656 151.051C285.656 150.879 285.721 150.714 285.839 150.588C285.9 150.522 285.975 150.471 286.059 150.437C286.143 150.404 286.233 150.389 286.323 150.394L288.27 150.448L287.355 148.996C287.269 148.853 287.221 148.69 287.216 148.523C287.213 148.433 287.229 148.344 287.262 148.261C287.295 148.177 287.345 148.102 287.409 148.039C287.469 147.977 287.541 147.928 287.621 147.895C287.7 147.862 287.786 147.845 287.872 147.845C287.992 147.843 288.11 147.877 288.212 147.942C288.313 148.007 288.393 148.101 288.442 148.211L289.388 149.9L290.292 148.286C290.349 148.161 290.439 148.053 290.553 147.975C290.667 147.898 290.8 147.852 290.937 147.845C291.022 147.842 291.107 147.858 291.185 147.892C291.263 147.925 291.333 147.975 291.389 148.039C291.452 148.098 291.502 148.17 291.535 148.249C291.569 148.329 291.585 148.415 291.583 148.501C291.581 148.654 291.537 148.803 291.454 148.932L290.507 150.448L292.476 150.394C292.567 150.389 292.659 150.404 292.744 150.437C292.83 150.47 292.907 150.522 292.97 150.588C293.081 150.717 293.142 150.881 293.142 151.051C293.142 151.22 293.081 151.384 292.97 151.513C292.907 151.579 292.83 151.631 292.744 151.664C292.659 151.698 292.567 151.712 292.476 151.707H290.486L291.368 153.084C291.467 153.25 291.523 153.439 291.529 153.632C291.532 153.719 291.517 153.806 291.486 153.888C291.455 153.969 291.407 154.043 291.346 154.106C291.289 154.166 291.221 154.214 291.145 154.247C291.07 154.281 290.988 154.298 290.905 154.299C290.772 154.296 290.642 154.255 290.532 154.18C290.421 154.106 290.334 154.002 290.281 153.88L289.388 152.298L288.496 153.88C288.443 154.006 288.355 154.114 288.242 154.192C288.13 154.271 287.998 154.315 287.861 154.321Z" fill="black"/>
<path d="M321.703 178.115H334.859" stroke="white" stroke-width="3" stroke-linecap="round" stroke-linejoin="round"/>
<path d="M139.236 81.2499V168.627C139.236 171.158 140.242 173.584 142.031 175.374C143.82 177.163 146.247 178.168 148.778 178.168H309.215" stroke="white" stroke-width="3" stroke-linecap="round" stroke-linejoin="round"/>
<path d="M139.236 58.0799V71.1816" stroke="white" stroke-width="3" stroke-linecap="round" stroke-linejoin="round"/>
</svg>
