<svg width="500" height="500" viewBox="0 0 500 500" fill="none" xmlns="http://www.w3.org/2000/svg">
<path d="M249.047 486.053C379.17 486.053 484.655 425.151 484.655 350.024C484.655 274.897 379.17 213.995 249.047 213.995C118.925 213.995 13.4395 274.897 13.4395 350.024C13.4395 425.151 118.925 486.053 249.047 486.053Z" fill="#F0F0F0"/>
<path d="M384.365 397.224C368.915 388.304 368.915 373.842 384.365 364.922C399.815 356.002 424.863 356.002 440.313 364.922C455.763 373.842 455.763 388.304 440.313 397.224C424.863 406.144 399.815 406.144 384.365 397.224Z" fill="#E0E0E0"/>
<path d="M70.12 398.462L29.48 374.998C27.189 373.675 27.189 371.53 29.48 370.207L265.869 233.728C268.16 232.405 271.875 232.405 274.166 233.728L314.808 257.191C317.099 258.514 317.099 260.659 314.808 261.981L78.417 398.462C76.126 399.785 72.411 399.785 70.12 398.462Z" fill="#E0E0E0"/>
<path d="M216.201 356.644L251.138 336.443C254.739 334.364 256.54 331.639 256.54 328.914C256.54 326.189 256.555 324.054 256.555 324.054L220.306 303.614C218.385 302.505 216.828 299.808 216.828 297.59V254.515L155.805 289.777L155.803 332.851C155.803 335.069 157.36 337.766 159.281 338.875L190.117 356.643C197.32 360.803 208.998 360.802 216.201 356.644Z" fill="#165DEE"/>
<g opacity="0.6">
<path d="M216.201 356.644L251.138 336.443C254.739 334.364 256.54 331.639 256.54 328.914C256.54 326.189 256.555 324.054 256.555 324.054L220.306 303.614C218.385 302.505 216.828 299.808 216.828 297.59V254.515L155.805 289.777L155.803 332.851C155.803 335.069 157.36 337.766 159.281 338.875L190.117 356.643C197.32 360.803 208.998 360.802 216.201 356.644Z" fill="black"/>
</g>
<path opacity="0.3" d="M170.455 340.48V345.319L159.271 338.874C157.363 337.77 155.797 335.079 155.797 332.85V289.78L167.423 283.073C167.664 286.025 167.925 289.077 168.166 292.049L160.014 296.768V330.421C160.014 332.65 161.56 335.34 163.488 336.445L170.455 340.48Z" fill="black"/>
<path d="M160.012 330.428C160.012 332.646 161.569 335.343 163.49 336.452L190.112 351.787C197.315 355.945 208.994 355.947 216.197 351.79L251.152 331.591C258.356 327.434 258.357 320.693 251.154 316.534L224.515 301.189C222.594 300.08 221.037 297.383 221.037 295.165L221.036 261.508L160.012 296.77V330.428Z" fill="#165DEE"/>
<path opacity="0.3" d="M160.012 330.428C160.012 332.646 161.569 335.343 163.49 336.452L190.112 351.787C197.315 355.945 208.994 355.947 216.197 351.79L251.152 331.591C258.356 327.434 258.357 320.693 251.154 316.534L224.515 301.189C222.594 300.08 221.037 297.383 221.037 295.165L221.036 261.508L160.012 296.77V330.428Z" fill="black"/>
<path opacity="0.5" d="M231.599 305.283V305.278L224.515 301.188C222.594 300.079 221.037 297.382 221.037 295.164V261.507L160.012 296.769V330.428C160.012 332.646 161.569 335.343 163.49 336.452L170.451 340.471L231.599 305.283Z" fill="black"/>
<path d="M256.547 324.058C256.547 324.058 256.547 326.186 256.547 328.917C256.547 331.648 254.74 334.358 251.146 336.447L216.203 356.636C212.749 358.644 208.272 359.648 203.754 359.728V354.889C208.272 354.829 212.749 353.785 216.203 351.797L251.146 331.587C254.739 329.519 256.547 326.789 256.547 324.058Z" fill="#165DEE"/>
<path opacity="0.5" d="M256.547 324.058C256.547 324.058 256.547 326.186 256.547 328.917C256.547 331.648 254.74 334.358 251.146 336.447L216.203 356.636C212.749 358.644 208.272 359.648 203.754 359.728V354.889C208.272 354.829 212.749 353.785 216.203 351.797L251.146 331.587C254.739 329.519 256.547 326.789 256.547 324.058Z" fill="black"/>
<path d="M62.0311 372.263C64.2831 373.563 68.0561 373.493 70.4571 372.107C100.458 354.786 276.457 253.175 306.454 235.857C308.855 234.471 310.8 231.1 310.8 228.328V37.414C310.8 34.642 308.974 31.34 306.722 30.04C304.47 28.74 300.698 28.809 298.297 30.196L62.3031 166.446C59.9021 167.832 57.9561 171.203 57.9561 173.976L57.9531 364.889C57.9531 367.661 59.7781 370.962 62.0311 372.263Z" fill="#165DEE"/>
<path d="M70.4564 372.102L306.452 235.853C308.853 234.467 310.799 231.096 310.799 228.323V37.409C310.799 34.637 308.853 33.513 306.452 34.899L70.4594 171.149C68.0584 172.535 66.1124 175.906 66.1124 178.679L66.1094 369.592C66.1094 372.364 68.0564 373.488 70.4564 372.102Z" fill="#165DEE"/>
<path opacity="0.5" d="M70.4564 372.102L306.452 235.853C308.853 234.467 310.799 231.096 310.799 228.323V37.409C310.799 34.637 308.853 33.513 306.452 34.899L70.4594 171.149C68.0584 172.535 66.1124 175.906 66.1124 178.679L66.1094 369.592C66.1094 372.364 68.0564 373.488 70.4564 372.102Z" fill="black"/>
<path d="M69.8172 377.064C67.4082 378.128 64.0752 378.088 62.0272 376.903C59.7782 375.598 57.9512 372.305 57.9512 369.514V352.131L66.1032 356.85V374.233C66.1032 376.763 67.7092 377.907 69.8172 377.064Z" fill="#165DEE"/>
<path opacity="0.5" d="M69.8172 377.064C67.4082 378.128 64.0752 378.088 62.0272 376.903C59.7782 375.598 57.9512 372.305 57.9512 369.514V352.131L66.1032 356.85V374.233C66.1032 376.763 67.7092 377.907 69.8172 377.064Z" fill="black"/>
<path d="M66.1035 356.849L66.1105 374.226C66.1105 376.998 68.0575 378.122 70.4575 376.736L306.454 240.487C308.855 239.101 310.801 235.73 310.801 232.957V215.543L66.1035 356.849Z" fill="#165DEE"/>
<path opacity="0.3" d="M66.1094 356.813V374.226C66.1094 376.998 68.0564 378.122 70.4564 376.736L306.452 240.487C308.853 239.101 310.799 235.73 310.799 232.957V215.543L66.1094 356.813Z" fill="black"/>
<path d="M74.2637 335.041L74.2657 181.386C74.2657 179.723 75.4337 177.7 76.8737 176.868L300.031 48.028C301.472 47.196 302.639 47.871 302.639 49.534L302.646 203.193C302.646 204.856 301.478 206.879 300.038 207.711L76.8727 336.547C75.4317 337.379 74.2637 336.704 74.2637 335.041Z" fill="#165DEE"/>
<path d="M74.2637 335.041L74.2657 181.386C74.2657 179.723 75.4337 177.7 76.8737 176.868L300.031 48.028C301.472 47.196 302.639 47.871 302.639 49.534L302.646 203.193C302.646 204.856 301.478 206.879 300.038 207.711L76.8727 336.547C75.4317 337.379 74.2637 336.704 74.2637 335.041Z" fill="#263238"/>
<path d="M188.452 291.726C186.199 293.027 184.373 296.19 184.373 298.791C184.373 301.392 186.2 302.446 188.453 301.145C190.706 299.844 192.532 296.681 192.532 294.08C192.531 291.48 190.705 290.426 188.452 291.726Z" fill="#165DEE"/>
<path opacity="0.7" d="M67.3882 174.378C66.6052 175.743 66.1232 177.289 66.1032 178.675V356.85L57.9512 352.131L57.9562 173.976C57.9562 172.591 58.4532 171.045 59.2362 169.68L67.3882 174.378Z" fill="black"/>
<path opacity="0.3" d="M310.755 36.694C310.447 34.453 308.637 33.641 306.448 34.895L70.4594 171.153C69.2664 171.842 68.1874 173.014 67.3854 174.381L59.2324 169.673C60.0244 168.326 61.1034 167.134 62.3064 166.445L298.295 30.197C300.701 28.809 304.463 28.737 306.725 30.043C308.781 31.225 310.477 34.093 310.755 36.694Z" fill="black"/>
<path d="M323.491 60.187C322.923 59.846 322.148 59.858 321.274 60.363L98.5861 188.949C96.9031 189.921 95.5391 192.281 95.5391 194.224L95.5411 346.943C95.5411 348.127 96.0481 349.173 96.8251 349.59C97.3231 349.858 99.9401 351.38 100.717 351.798C101.215 352.066 101.824 352.075 102.482 351.696L325.162 223.059C326.846 222.09 328.211 219.73 328.211 217.787V64.328C328.211 63.326 327.848 62.632 327.267 62.327C326.72 62.041 324.052 60.523 323.491 60.187Z" fill="#165DEE"/>
<path d="M101.476 351.491C100.625 351.491 99.9336 350.441 99.9336 349.151V196.432C99.9336 194.682 101.214 192.464 102.73 191.588L325.415 63.002C325.811 62.773 326.194 62.653 326.525 62.653C327.268 62.653 327.711 63.279 327.711 64.328V217.788C327.711 219.538 326.43 221.754 324.913 222.626L102.232 351.263C101.97 351.414 101.716 351.491 101.476 351.491Z" fill="#FAFAFA"/>
<path d="M326.526 63.153C327.122 63.153 327.211 63.889 327.211 64.328V217.788C327.211 219.381 326.044 221.398 324.662 222.194L101.984 350.83C101.798 350.937 101.627 350.991 101.476 350.991C100.92 350.991 100.433 350.131 100.433 349.151V196.432C100.433 194.838 101.599 192.819 102.979 192.022L325.665 63.435C326.069 63.202 326.356 63.153 326.526 63.153ZM326.526 62.153C326.117 62.153 325.654 62.287 325.165 62.569L102.48 191.156C100.798 192.127 99.4336 194.49 99.4336 196.432V349.151C99.4336 350.687 100.287 351.991 101.477 351.991C101.792 351.991 102.131 351.9 102.483 351.697L325.163 223.06C326.847 222.091 328.212 219.731 328.212 217.788V64.328C328.212 62.95 327.525 62.153 326.526 62.153Z" fill="#E0E0E0"/>
<path d="M96.8211 349.589C97.1511 349.764 99.5201 351.115 100.558 351.706C99.8581 351.207 99.4891 350.35 99.4371 349.148V206.397L95.5371 204.115V346.944C95.5371 348.123 96.0451 349.177 96.8211 349.589Z" fill="#F0F0F0"/>
<path d="M328.21 64.305C328.198 62.381 326.841 61.602 325.166 62.569L102.48 191.156C100.798 192.127 99.4336 194.49 99.4336 196.432L99.4366 206.397L328.21 74.303V64.305Z" fill="#165DEE"/>
<g opacity="0.4">
<path d="M325.165 62.568L102.484 191.154C101.65 191.643 100.884 192.467 100.338 193.415L96.4668 191.173C97.0128 190.234 97.7628 189.418 98.5858 188.948L321.275 60.362C322.147 59.854 322.923 59.846 323.489 60.182C324.035 60.517 326.565 61.955 327.207 62.299C326.669 62.041 325.951 62.118 325.165 62.568Z" fill="white"/>
</g>
<path opacity="0.15" d="M95.5371 204.125L95.5391 194.22C95.5391 193.233 95.9011 192.141 96.4661 191.173L100.346 193.405C99.7811 194.363 99.4361 195.446 99.4361 196.432V206.395L95.5371 204.125Z" fill="black"/>
<path d="M281.248 179.423L147.874 256.426C146.645 257.136 145.648 258.862 145.648 260.281V298.517C145.648 299.936 146.645 301.661 147.876 302.369L151.773 304.611C153.003 305.319 154.997 305.317 156.226 304.608L289.582 227.615C290.811 226.905 291.808 225.179 291.809 223.76L291.825 185.513C291.826 184.094 290.829 182.369 289.598 181.661L285.702 179.419C284.471 178.712 282.477 178.714 281.248 179.423Z" fill="#165DEE"/>
<path opacity="0.5" d="M291.807 185.153C291.653 184.002 290.717 183.58 289.597 184.228L156.228 261.229C155.611 261.579 155.056 262.195 154.655 262.894L146.307 258.072C146.708 257.383 147.263 256.777 147.87 256.427L281.249 179.426C282.473 178.717 284.467 178.706 285.701 179.416L289.597 181.657C290.727 182.305 291.663 183.817 291.807 185.153Z" fill="white"/>
<path d="M155.848 304.787C154.614 305.311 152.887 305.25 151.777 304.612L147.881 302.371C146.647 301.662 145.65 299.935 145.65 298.516V260.283C145.65 259.563 145.907 258.772 146.308 258.073L154.656 262.895C154.245 263.594 153.998 264.375 153.998 265.085V303.328C153.997 304.602 154.799 305.188 155.848 304.787Z" fill="#263238"/>
<path d="M156.226 261.233L289.6 184.229C290.829 183.519 291.825 184.095 291.825 185.514L291.809 223.761C291.808 225.18 290.811 226.906 289.582 227.616L156.226 304.609C154.997 305.319 154 304.743 154 303.324V265.088C154.001 263.668 154.997 261.942 156.226 261.233Z" fill="#165DEE"/>
<path d="M245.893 199.839L147.87 256.428C147.264 256.778 146.709 257.384 146.307 258.073L154.655 262.895C155.056 262.196 155.611 261.579 156.228 261.23L254.225 204.651L245.893 199.839Z" fill="#455A64"/>
<path d="M254.226 204.652L156.226 261.232C154.997 261.942 154 263.668 154 265.087V303.323C154 304.742 154.996 305.318 156.226 304.608L254.226 248.028V204.652Z" fill="#37474F"/>
<path d="M178.828 256.575L229.395 227.379C231.492 226.168 233.191 227.028 233.191 229.3C233.191 231.571 231.491 234.394 229.394 235.605L178.831 264.798C176.734 266.009 175.033 265.149 175.033 262.879C175.032 260.608 176.731 257.786 178.828 256.575Z" fill="#165DEE"/>
<path d="M189.19 266.237C189.247 266.204 189.297 266.213 189.338 266.263C189.38 266.313 189.401 266.388 189.401 266.49V272.185C189.401 272.759 189.354 273.303 189.259 273.821C189.167 274.337 189.026 274.817 188.837 275.259C188.65 275.701 188.415 276.092 188.135 276.436C187.853 276.778 187.528 277.056 187.158 277.269C186.783 277.486 186.455 277.584 186.177 277.566C185.898 277.546 185.665 277.423 185.478 277.199C185.29 276.974 185.151 276.655 185.059 276.245C184.969 275.835 184.922 275.343 184.922 274.769V269.075C184.922 268.973 184.943 268.874 184.985 268.776C185.026 268.678 185.075 268.611 185.133 268.579L185.767 268.213C185.824 268.179 185.873 268.188 185.916 268.238C185.957 268.288 185.978 268.363 185.978 268.465V274.09C185.978 274.47 186.007 274.777 186.064 275.012C186.12 275.249 186.202 275.422 186.305 275.532C186.409 275.644 186.535 275.697 186.681 275.692C186.827 275.686 186.986 275.633 187.158 275.534C187.33 275.435 187.489 275.303 187.638 275.138C187.787 274.973 187.913 274.777 188.018 274.544C188.122 274.313 188.204 274.046 188.264 273.743C188.324 273.44 188.353 273.098 188.353 272.719V267.095C188.353 266.993 188.374 266.894 188.415 266.796C188.457 266.698 188.506 266.631 188.565 266.598L189.19 266.237Z" fill="#FAFAFA"/>
<path d="M193.112 271.625C193.112 271.525 193.094 271.451 193.057 271.407C193.021 271.363 192.957 271.34 192.866 271.337C192.775 271.334 192.653 271.348 192.503 271.38C192.351 271.412 192.159 271.449 191.925 271.492C191.695 271.532 191.506 271.524 191.355 271.474C191.203 271.422 191.083 271.329 190.992 271.197C190.901 271.064 190.837 270.892 190.8 270.675C190.764 270.46 190.746 270.214 190.746 269.937C190.746 269.659 190.782 269.365 190.855 269.053C190.928 268.743 191.033 268.444 191.171 268.156C191.31 267.868 191.477 267.602 191.675 267.358C191.873 267.115 192.1 266.919 192.355 266.772C192.61 266.625 192.838 266.543 193.039 266.531C193.24 266.516 193.41 266.552 193.551 266.637C193.691 266.723 193.8 266.852 193.878 267.025C193.956 267.198 194 267.391 194.011 267.607C194.016 267.706 193.996 267.806 193.952 267.905C193.908 268.004 193.857 268.071 193.799 268.103L193.198 268.45C193.121 268.495 193.061 268.504 193.022 268.476C192.983 268.448 192.941 268.414 192.894 268.376C192.847 268.34 192.785 268.318 192.706 268.312C192.629 268.306 192.511 268.348 192.355 268.438C192.198 268.528 192.061 268.649 191.941 268.801C191.821 268.954 191.76 269.137 191.76 269.35C191.76 269.451 191.775 269.528 191.804 269.582C191.832 269.634 191.886 269.666 191.967 269.674C192.048 269.684 192.161 269.676 192.304 269.654C192.447 269.632 192.632 269.596 192.862 269.548C193.325 269.456 193.652 269.542 193.842 269.807C194.032 270.072 194.128 270.484 194.128 271.038C194.128 271.317 194.089 271.609 194.011 271.918C193.933 272.227 193.819 272.528 193.671 272.823C193.522 273.117 193.341 273.389 193.124 273.639C192.908 273.889 192.664 274.092 192.394 274.247C192.117 274.407 191.875 274.489 191.663 274.495C191.452 274.501 191.273 274.454 191.129 274.352C190.982 274.252 190.871 274.108 190.793 273.921C190.715 273.735 190.673 273.533 190.667 273.314C190.662 273.215 190.682 273.115 190.726 273.016C190.77 272.917 190.82 272.85 190.878 272.816L191.48 272.469C191.558 272.425 191.616 272.423 191.656 272.465C191.694 272.508 191.739 272.555 191.788 272.611C191.837 272.666 191.906 272.7 191.995 272.714C192.083 272.727 192.216 272.683 192.394 272.58C192.472 272.535 192.553 272.479 192.636 272.412C192.719 272.346 192.797 272.271 192.867 272.189C192.936 272.107 192.995 272.017 193.043 271.921C193.088 271.826 193.112 271.727 193.112 271.625Z" fill="#FAFAFA"/>
<path d="M195.148 268.906C195.148 268.388 195.192 267.875 195.281 267.365C195.37 266.856 195.498 266.384 195.664 265.949C195.831 265.515 196.032 265.133 196.269 264.801C196.506 264.47 196.77 264.221 197.062 264.052C197.353 263.883 197.617 263.825 197.855 263.877C198.091 263.931 198.293 264.07 198.46 264.293C198.626 264.516 198.755 264.817 198.847 265.194C198.937 265.573 198.984 265.998 198.984 266.47V267.094C198.984 267.196 198.963 267.297 198.921 267.393C198.88 267.491 198.831 267.558 198.772 267.591L196.163 269.098C196.163 269.311 196.189 269.483 196.238 269.616C196.287 269.751 196.353 269.849 196.437 269.911C196.52 269.974 196.617 270.002 196.726 269.994C196.835 269.987 196.948 269.949 197.062 269.883C197.228 269.788 197.363 269.68 197.468 269.559C197.572 269.439 197.658 269.314 197.726 269.181C197.783 269.075 197.83 268.996 197.867 268.947C197.903 268.898 197.953 268.857 198.016 268.821L198.641 268.46C198.697 268.428 198.748 268.435 198.793 268.482C198.837 268.531 198.857 268.608 198.851 268.713C198.846 268.846 198.806 269.035 198.731 269.283C198.656 269.53 198.542 269.794 198.391 270.076C198.24 270.358 198.054 270.632 197.833 270.898C197.612 271.164 197.355 271.382 197.064 271.55C196.772 271.719 196.508 271.781 196.271 271.739C196.034 271.695 195.832 271.554 195.666 271.317C195.499 271.08 195.372 270.758 195.283 270.35C195.193 269.944 195.148 269.462 195.148 268.906ZM197.063 265.717C196.911 265.805 196.783 265.92 196.676 266.059C196.569 266.201 196.479 266.353 196.406 266.52C196.333 266.688 196.278 266.858 196.238 267.034C196.199 267.21 196.174 267.369 196.163 267.514L197.929 266.495C197.919 266.363 197.899 266.229 197.871 266.091C197.843 265.955 197.796 265.844 197.73 265.756C197.665 265.67 197.578 265.618 197.472 265.6C197.365 265.583 197.229 265.622 197.063 265.717Z" fill="#FAFAFA"/>
<path d="M202.126 262.934C201.814 263.115 201.589 263.368 201.45 263.692C201.312 264.018 201.243 264.458 201.243 265.013V268.624C201.243 268.725 201.222 268.826 201.181 268.923C201.139 269.021 201.09 269.088 201.031 269.12L200.439 269.463C200.382 269.495 200.332 269.487 200.29 269.437C200.248 269.388 200.227 269.312 200.227 269.21V262.738C200.227 262.637 200.248 262.536 200.29 262.439C200.331 262.341 200.381 262.275 200.439 262.241L201.031 261.9C201.089 261.866 201.138 261.875 201.181 261.925C201.222 261.974 201.243 262.05 201.243 262.152V262.472C201.378 262.171 201.523 261.917 201.677 261.707C201.83 261.498 202.031 261.322 202.282 261.177L202.633 260.974C202.69 260.942 202.739 260.95 202.782 261C202.823 261.049 202.844 261.126 202.844 261.227V262.144C202.844 262.246 202.823 262.346 202.782 262.444C202.74 262.542 202.691 262.609 202.633 262.641L202.126 262.934Z" fill="#FAFAFA"/>
<path d="M209.586 262.447C209.643 262.414 209.692 262.423 209.735 262.473C209.776 262.522 209.797 262.599 209.797 262.7V263.687C209.797 263.788 209.776 263.889 209.735 263.986C209.693 264.084 209.644 264.15 209.586 264.183L206.164 266.159C206.106 266.192 206.058 266.183 206.015 266.133C205.974 266.084 205.953 266.008 205.953 265.906V256.934C205.953 256.833 205.974 256.733 206.015 256.635C206.057 256.537 206.105 256.471 206.164 256.438L206.797 256.073C206.854 256.04 206.904 256.049 206.946 256.099C206.988 256.149 207.009 256.223 207.009 256.326V263.936L209.586 262.447Z" fill="#FAFAFA"/>
<path d="M212.656 255.05C212.943 254.884 213.202 254.813 213.434 254.837C213.666 254.86 213.867 254.962 214.035 255.142C214.205 255.322 214.34 255.567 214.441 255.88C214.543 256.191 214.603 256.556 214.618 256.972C214.623 257.052 214.626 257.157 214.626 257.287C214.626 257.415 214.626 257.546 214.626 257.674C214.626 257.805 214.626 257.931 214.626 258.058C214.626 258.182 214.623 258.288 214.618 258.374C214.597 258.812 214.538 259.244 214.438 259.672C214.339 260.1 214.205 260.499 214.035 260.87C213.866 261.24 213.665 261.572 213.434 261.863C213.202 262.154 212.943 262.382 212.656 262.548C212.37 262.713 212.111 262.785 211.879 262.761C211.648 262.737 211.447 262.639 211.279 262.462C211.109 262.287 210.975 262.042 210.876 261.73C210.777 261.417 210.716 261.052 210.695 260.639C210.69 260.559 210.687 260.456 210.684 260.334C210.682 260.209 210.68 260.085 210.68 259.955C210.68 259.824 210.682 259.694 210.684 259.563C210.687 259.432 210.69 259.324 210.695 259.238C210.711 258.802 210.77 258.371 210.871 257.941C210.973 257.512 211.109 257.11 211.279 256.734C211.448 256.358 211.648 256.026 211.879 255.735C212.111 255.443 212.37 255.216 212.656 255.05ZM213.603 257.629C213.587 257.351 213.549 257.135 213.488 256.979C213.428 256.824 213.355 256.716 213.265 256.656C213.177 256.596 213.081 256.576 212.977 256.594C212.873 256.612 212.765 256.653 212.656 256.716C212.548 256.778 212.441 256.862 212.337 256.964C212.233 257.065 212.136 257.198 212.048 257.36C211.96 257.523 211.884 257.716 211.825 257.94C211.766 258.164 211.728 258.425 211.712 258.72C211.707 258.798 211.703 258.893 211.701 259.005C211.698 259.117 211.696 259.234 211.696 259.354C211.696 259.474 211.698 259.591 211.701 259.705C211.703 259.82 211.707 259.908 211.712 259.97C211.728 260.247 211.766 260.464 211.825 260.618C211.884 260.774 211.96 260.881 212.048 260.941C212.136 261.001 212.233 261.022 212.337 261.003C212.441 260.985 212.548 260.943 212.656 260.881C212.765 260.818 212.873 260.736 212.977 260.634C213.081 260.532 213.177 260.401 213.265 260.238C213.354 260.075 213.428 259.882 213.488 259.658C213.548 259.433 213.586 259.173 213.603 258.877C213.607 258.811 213.61 258.718 213.61 258.602C213.61 258.486 213.61 258.367 213.61 258.247C213.61 258.129 213.61 258.012 213.61 257.902C213.61 257.79 213.607 257.7 213.603 257.629Z" fill="#FAFAFA"/>
<path d="M217.678 260.898C217.789 260.836 217.9 260.74 218.015 260.614C218.129 260.488 218.233 260.334 218.326 260.149C218.42 259.966 218.497 259.757 218.557 259.523C218.617 259.289 218.647 259.038 218.647 258.769V258.255C218.605 258.362 218.551 258.484 218.482 258.62C218.415 258.757 218.332 258.895 218.236 259.034C218.14 259.173 218.027 259.307 217.901 259.436C217.773 259.567 217.628 259.677 217.467 259.769C217.206 259.92 216.97 259.966 216.76 259.908C216.548 259.85 216.369 259.711 216.221 259.496C216.072 259.281 215.955 259.002 215.87 258.658C215.784 258.314 215.735 257.932 215.724 257.512C215.719 257.375 215.717 257.216 215.717 257.03C215.717 256.845 215.719 256.683 215.724 256.54C215.735 256.108 215.783 255.671 215.87 255.227C215.955 254.784 216.073 254.37 216.221 253.983C216.37 253.596 216.548 253.251 216.76 252.949C216.97 252.647 217.206 252.422 217.467 252.271C217.628 252.178 217.773 252.12 217.901 252.103C218.027 252.085 218.14 252.09 218.236 252.117C218.332 252.144 218.415 252.188 218.482 252.247C218.55 252.305 218.604 252.364 218.647 252.423V252.103C218.647 252.002 218.667 251.902 218.709 251.804C218.75 251.706 218.799 251.64 218.858 251.607L219.451 251.264C219.508 251.232 219.558 251.24 219.6 251.29C219.642 251.339 219.663 251.416 219.663 251.517V258.031C219.663 259.151 219.486 260.097 219.135 260.87C218.784 261.643 218.298 262.207 217.677 262.565C217.412 262.719 217.166 262.798 216.939 262.805C216.713 262.81 216.516 262.757 216.35 262.645C216.183 262.533 216.051 262.373 215.951 262.166C215.853 261.959 215.797 261.719 215.787 261.448C215.781 261.35 215.801 261.25 215.846 261.151C215.889 261.051 215.94 260.984 215.998 260.951L216.529 260.645C216.602 260.603 216.664 260.611 216.716 260.669C216.768 260.726 216.813 260.781 216.849 260.836C216.916 260.954 217.009 261.031 217.126 261.064C217.246 261.099 217.429 261.043 217.678 260.898ZM216.741 256.051C216.725 256.32 216.725 256.579 216.741 256.83C216.772 257.412 216.877 257.786 217.054 257.946C217.23 258.109 217.447 258.115 217.701 257.968C217.956 257.82 218.171 257.562 218.346 257.193C218.521 256.825 218.621 256.382 218.647 255.867C218.657 255.722 218.663 255.544 218.663 255.33C218.663 255.117 218.657 254.945 218.647 254.812C218.621 254.345 218.521 254.024 218.346 253.846C218.171 253.669 217.956 253.654 217.701 253.802C217.446 253.948 217.229 254.207 217.054 254.573C216.877 254.939 216.773 255.433 216.741 256.051Z" fill="#FAFAFA"/>
<path d="M221.975 247.17C222.032 247.136 222.082 247.145 222.123 247.194C222.165 247.244 222.186 247.321 222.186 247.422V248.505C222.186 248.607 222.165 248.707 222.123 248.805C222.082 248.903 222.032 248.969 221.975 249.003L221.304 249.39C221.247 249.422 221.197 249.414 221.155 249.364C221.113 249.314 221.092 249.238 221.092 249.136V248.053C221.092 247.952 221.113 247.851 221.155 247.753C221.196 247.656 221.246 247.589 221.304 247.557L221.975 247.17ZM222.148 256.555C222.148 256.657 222.127 256.758 222.085 256.854C222.044 256.952 221.994 257.019 221.936 257.052L221.344 257.394C221.287 257.427 221.237 257.418 221.195 257.368C221.153 257.32 221.132 257.243 221.132 257.141V250.67C221.132 250.568 221.153 250.467 221.195 250.371C221.236 250.273 221.286 250.206 221.344 250.173L221.936 249.831C221.993 249.798 222.043 249.807 222.085 249.857C222.127 249.905 222.148 249.981 222.148 250.084V256.555Z" fill="#FAFAFA"/>
<path d="M227.427 253.507C227.427 253.608 227.406 253.709 227.366 253.806C227.324 253.904 227.275 253.97 227.217 254.003L226.623 254.346C226.566 254.378 226.517 254.37 226.474 254.32C226.432 254.271 226.412 254.195 226.412 254.093V250.565C226.412 250.01 226.34 249.607 226.193 249.358C226.047 249.109 225.824 249.071 225.521 249.246C225.245 249.405 225.028 249.698 224.869 250.122C224.71 250.547 224.631 251.038 224.631 251.593V255.121C224.631 255.222 224.61 255.323 224.569 255.42C224.527 255.518 224.478 255.585 224.42 255.617L223.827 255.96C223.77 255.992 223.719 255.984 223.678 255.934C223.636 255.885 223.615 255.808 223.615 255.707V249.235C223.615 249.134 223.636 249.033 223.678 248.936C223.719 248.838 223.769 248.772 223.827 248.738L224.42 248.397C224.477 248.363 224.526 248.372 224.569 248.422C224.61 248.471 224.631 248.548 224.631 248.649V248.969C224.767 248.65 224.925 248.36 225.108 248.097C225.29 247.834 225.506 247.631 225.757 247.487C226.074 247.303 226.34 247.237 226.553 247.29C226.767 247.343 226.938 247.48 227.068 247.701C227.199 247.922 227.291 248.215 227.346 248.576C227.4 248.938 227.427 249.337 227.427 249.772V253.507Z" fill="#FAFAFA"/>
<path d="M277.873 224.402L268.159 230.01L269.664 216.386C268.502 215.772 267.762 214.26 267.762 212.09C267.762 208.221 270.114 203.727 273.016 202.051C275.917 200.376 278.269 202.154 278.269 206.023C278.269 208.193 277.529 210.56 276.367 212.516L277.873 224.402Z" fill="#455A64"/>
<path d="M277.872 224.402L269.323 219.467L268.158 230.01L277.872 224.402Z" fill="#37474F"/>
<path d="M273.017 202.051C271.118 203.147 269.46 205.452 268.537 207.997L276.369 212.519V212.517C277.531 210.561 278.271 208.195 278.271 206.024C278.27 202.155 275.918 200.376 273.017 202.051Z" fill="#37474F"/>
<path d="M225.794 156.704C222.472 154.781 217.882 155.054 212.809 157.983C202.67 163.838 194.451 178.075 194.453 189.783C194.454 195.658 196.525 199.777 199.869 201.685C200.739 202.182 205.461 204.929 206.338 205.436C209.66 207.356 214.248 207.082 219.318 204.155C229.456 198.301 237.674 184.064 237.674 172.355C237.674 166.504 235.62 162.395 232.301 160.477" fill="#165DEE"/>
<path d="M219.315 161.755C209.177 167.612 200.957 181.847 200.959 193.554C200.96 205.262 209.18 210.008 219.318 204.154C229.456 198.3 237.685 184.063 237.674 172.354C237.664 160.648 229.444 155.902 219.315 161.755Z" fill="#165DEE"/>
<path d="M229.452 187.731V189.067C226.838 193.529 223.26 197.414 219.316 199.685C215.365 201.963 211.795 202.212 209.18 200.758V197.99C209.18 192.645 212.809 186.357 217.439 183.677L220.104 182.143C222.47 180.777 224.763 180.602 226.567 181.646C228.408 182.707 229.452 184.92 229.452 187.731Z" fill="#165DEE"/>
<path opacity="0.4" d="M225.794 156.704L232.301 160.475C228.977 158.551 224.387 158.823 219.317 161.753C212.678 165.59 206.862 173.02 203.638 180.979L197.131 177.204C200.355 169.245 206.168 161.815 212.81 157.981C217.883 155.055 222.473 154.781 225.794 156.704Z" fill="white"/>
<path opacity="0.2" d="M206.093 205.293C204.947 204.631 200.671 202.141 199.867 201.683C196.523 199.776 194.451 195.657 194.451 189.783L200.958 193.558C200.962 199.264 202.918 203.317 206.093 205.293Z" fill="black"/>
<path opacity="0.1" d="M197.132 177.205L203.639 180.98C201.938 185.176 200.96 189.517 200.96 193.554V193.557L194.453 189.782C194.453 185.742 195.434 181.398 197.132 177.205Z" fill="black"/>
<path d="M217.008 181.521C216.372 181.521 215.779 181.368 215.242 181.061C214.005 180.346 213.324 178.931 213.324 177.078C213.324 173.685 215.626 169.696 218.567 167.999V167.996C220.166 167.069 221.728 166.954 222.974 167.668C224.211 168.383 224.892 169.798 224.892 171.651C224.892 175.044 222.59 179.033 219.652 180.73C218.74 181.255 217.842 181.521 217.008 181.521Z" fill="white"/>
<path d="M226.567 181.648C224.763 180.604 222.47 180.779 220.104 182.145L217.439 183.679C212.809 186.359 209.18 192.646 209.18 197.992V200.76C211.794 202.213 215.365 201.965 219.316 199.687C223.259 197.416 226.837 193.531 229.452 189.069V187.733C229.452 184.92 228.408 182.707 226.567 181.648Z" fill="white"/>
<path d="M432.154 354.648C432.154 354.648 433.482 342.969 439.291 333.905C445.101 324.841 453.083 319.184 460.531 318.595C467.979 318.006 473.995 324.858 466.025 329.564C458.056 334.27 443.897 339.072 437.381 356.672L432.154 354.648Z" fill="#165DEE"/>
<path opacity="0.1" d="M432.154 354.648C432.154 354.648 433.482 342.969 439.291 333.905C445.101 324.841 453.083 319.184 460.531 318.595C467.979 318.006 473.995 324.858 466.025 329.564C458.056 334.27 443.897 339.072 437.381 356.672L432.154 354.648Z" fill="black"/>
<path d="M434.339 351.615C434.312 351.61 434.286 351.603 434.26 351.592C434.056 351.51 433.958 351.278 434.041 351.074C441.901 331.717 456.864 323.634 463.678 322.065C463.891 322.014 464.105 322.15 464.155 322.363C464.204 322.578 464.071 322.791 463.857 322.84C457.182 324.377 442.515 332.32 434.778 351.373C434.706 351.551 434.52 351.648 434.339 351.615Z" fill="white"/>
<path d="M474.124 351.844C473.45 353.364 471.79 354.156 470.245 354.778C468.709 355.394 467.025 356.068 466.191 357.505C464.51 360.409 467.27 364.491 465.465 367.319C464.707 368.504 463.299 369.129 461.914 369.377C460.763 369.592 459.592 369.591 458.425 369.689C457.864 369.677 457.308 369.637 456.766 369.56C455.165 369.328 453.428 369.253 451.961 370.072C449.653 371.369 448.944 374.283 447.543 376.53C445.862 379.22 442.891 380.982 439.769 381.406C438.732 381.543 436.803 381.73 435.746 381.141C435.663 381.095 435.595 381.052 435.528 381.002C435.521 381.001 435.515 380.992 435.509 380.983C435.364 380.819 435.182 380.611 435.103 380.498C435.083 380.479 435.073 380.455 435.062 380.43C434.653 378.924 435.321 377.357 435.347 375.802C435.35 375.704 435.351 375.613 435.345 375.52C435.281 373.712 435.23 371.914 435.187 370.111C435.103 366.793 435.065 363.468 435.088 360.146C435.111 357.989 434.851 355.627 435.764 353.595C436.775 351.36 439.288 351.311 440.238 349.118C440.619 348.244 440.821 347.307 441.189 346.423C442.288 343.831 444.951 341.968 447.769 341.83C452.156 341.607 456.094 345.159 460.476 344.836C461.611 344.747 462.717 344.402 463.835 344.196C467.389 343.531 471.496 344.542 473.494 347.55C474.331 348.807 474.735 350.464 474.124 351.844Z" fill="#165DEE"/>
<path d="M434.704 373.519C434.694 373.517 434.684 373.515 434.674 373.512C434.475 373.459 434.356 373.254 434.409 373.054C440.471 350.31 464.435 347.023 470.042 347.428C470.245 347.444 470.403 347.622 470.388 347.828C470.373 348.034 470.194 348.189 469.988 348.174C464.504 347.778 441.064 350.994 435.132 373.247C435.082 373.437 434.894 373.554 434.704 373.519Z" fill="white"/>
<path d="M461.33 361.994C461.257 361.981 461.188 361.946 461.132 361.889C461.072 361.828 454.96 355.803 444.824 357.295C444.62 357.322 444.429 357.184 444.399 356.979C444.369 356.774 444.511 356.584 444.715 356.554C455.243 355.006 461.601 361.298 461.665 361.362C461.81 361.509 461.809 361.746 461.662 361.891C461.571 361.981 461.446 362.015 461.33 361.994Z" fill="white"/>
<path d="M377.114 80.006L380.296 81.23V74.219C380.296 68.661 384.729 67.329 389.542 70.107C394.355 72.886 398.257 79.644 398.257 85.202V86.22C399.349 85.784 400.759 85.953 402.301 86.844C405.765 88.844 408.572 93.707 408.572 97.706V98.169L413.009 100.731C415.29 102.048 417.139 105.251 417.139 107.884C417.139 110.518 415.29 111.585 413.009 110.268L377.112 89.543C374.831 88.226 372.982 85.024 372.982 82.39C372.984 79.756 374.833 78.689 377.114 80.006Z" fill="#E6E6E6"/>
<path d="M419.705 74.464L425.474 77.795C425.445 77.537 425.425 77.282 425.425 77.031V75.36C425.425 72.386 427.513 71.18 430.089 72.667C431.132 73.269 432.092 74.224 432.869 75.34C433.291 71.6 436.225 70.207 439.789 72.265C443.643 74.49 446.767 79.901 446.767 84.35V86.851C446.767 88.004 446.554 88.974 446.176 89.748L450.968 92.515C452.397 93.34 453.555 95.346 453.555 96.996C453.555 98.646 452.397 99.315 450.968 98.49L419.704 80.44C418.275 79.615 417.117 77.609 417.117 75.959C417.118 74.308 418.276 73.639 419.705 74.464Z" fill="#E6E6E6"/>
<path d="M397.369 226.232C393.169 233.333 389.128 239.502 386.291 242.459C380.904 244.965 368.246 248.817 363.293 249.462C362.415 249.576 361.533 249.352 360.807 248.877C358.86 247.601 357.354 247.394 355.301 246.683C353.694 246.127 353.013 245.359 352.711 245.651C352.323 246.026 351.9 247.093 352.879 248.198C353.371 248.753 354.268 249.36 355.423 250.101C355.423 250.101 351.882 251.046 348.719 250.216C344.432 249.091 342.408 251.152 345.307 255.807C346.345 257.474 350.433 260.143 358.717 259.422C361.104 259.215 364.548 259.015 367.519 258.381C375.465 256.685 384.297 255.042 389.727 253.42C391.097 253.011 393.544 251.426 395.001 249.765C404.135 239.353 407.16 231.935 411.164 225.193L410.818 214.176C404.345 213.975 400.883 220.289 397.369 226.232Z" fill="#FFA8A7"/>
<path d="M411.936 213.975C411.936 213.975 406.283 212.773 402.034 218.209C397.588 223.898 389.727 237.561 389.727 237.561C389.727 237.561 392.306 244.412 399.245 245.538L410.393 230.48C410.393 230.48 415.672 220.057 411.936 213.975Z" fill="#455A64"/>
<path d="M436.038 367.536H428.771V380.494H436.038V367.536Z" fill="#FFA8A7"/>
<path d="M410.84 366.845L403.577 367.105L403.213 353.392L410.84 353.132V366.845Z" fill="#FFA8A7"/>
<path d="M437.062 255.347C437.062 262.575 435.998 320.745 435.998 320.745C436.167 322.825 438.039 326.66 437.634 334.648C437.083 345.5 436.349 374.016 436.349 374.016C436.349 374.016 432.821 376.163 428.257 374.182C428.257 374.182 422.365 334.221 421.063 323.468C419.927 314.083 417.016 282.948 417.016 282.948L413.077 319.689C413.077 319.689 414.417 325.286 413.978 331.718C413.638 336.692 411.301 362.597 411.301 362.597C411.301 362.597 407.88 365.015 402.91 363.266C402.91 363.266 398.776 324.253 398.692 319.689C398.596 314.486 401.109 255.27 401.109 255.27L437.062 255.347Z" fill="#37474F"/>
<path d="M428.77 376.758V375.676C428.075 375.991 426.459 382.412 423.575 385.151C421.283 387.329 418.156 389.844 417.36 392.272C416.533 394.797 421.715 396.191 423.856 395.796C426.344 395.337 430.658 393.512 431.74 391.82C432.823 390.128 433.33 387.632 434.209 386.393C435.089 385.153 437.117 383.769 437.593 382.334C437.854 381.546 437.544 379.819 437.177 378.361C436.84 377.023 436.475 375.551 436.036 375.677C436.035 375.84 436.036 376.502 436.036 376.502C435.508 377.111 434.049 377.715 432.403 377.781C431.341 377.822 428.761 377.602 428.77 376.758Z" fill="#263238"/>
<path d="M403.501 364.771C403.123 364.785 402.816 365.339 401.984 366.278C400.978 367.412 399.333 368.635 397.709 369.482C394.988 370.901 389.697 373.083 387.303 374.207C385.807 374.909 385.877 376.791 387.423 377.862C388.969 378.933 392.702 379.705 397.185 378.66C399.627 378.091 402.806 375.742 404.818 375.869C406.83 375.996 410.595 375.966 412.08 374.899C413.565 373.833 412.971 371.556 412.551 369.599C412.093 367.463 411.52 364.133 410.841 364.279V365.015C409.967 366.393 405.458 366.954 403.539 365.939L403.501 364.771Z" fill="#263238"/>
<path d="M417.017 282.947C417.017 282.947 411.207 281.243 406.896 276.903C406.896 276.903 408.849 280.711 414.656 284.255L413.414 317.066L417.017 282.947Z" fill="#263238"/>
<path d="M432.991 215.059C432.991 215.059 438.966 216.442 438.562 227.276L437.305 244.534L437.34 270.433C431.996 276.488 408.304 276.045 400.193 269.948C400.193 269.948 401.112 239.298 401.66 227.504C402.049 219.119 403.979 214.898 412.219 213.974L422.353 214.42L432.991 215.059Z" fill="#165DEE"/>
<path d="M425.355 192.535C425.355 198.759 420.511 203.804 414.536 203.804C408.561 203.804 405.024 198.62 403.717 192.535C401.325 181.406 408.561 181.266 414.536 181.266C420.511 181.266 425.355 186.311 425.355 192.535Z" fill="#263238"/>
<path d="M430.876 197.094C430.876 197.094 429.217 205.214 428.551 206.548C427.886 207.882 426.51 208.261 426.51 208.261L426.626 202.549L430.876 197.094Z" fill="#263238"/>
<path d="M428.793 185.461C428.793 185.461 429.983 185.163 431.247 187.138C432.331 188.831 432.577 192.634 430.876 197.094L427.75 197.468L428.793 185.461Z" fill="#263238"/>
<path d="M429.943 187.105L433.776 187.176C433.87 186.076 433.088 185.169 432.029 185.149C430.971 185.13 430.037 186.005 429.943 187.105Z" fill="#263238"/>
<path d="M430.412 186.197L433.252 183.466C432.551 182.654 431.347 182.607 430.563 183.361C429.779 184.114 429.711 185.384 430.412 186.197Z" fill="#263238"/>
<path d="M426.812 197.47C427.439 197.86 428.333 196.606 429.106 195.763C429.879 194.921 432.306 194.125 433.565 196.888C434.848 199.703 432.679 202.38 430.875 203.277C427.65 204.88 426.625 202.549 426.625 202.549L426.364 215.411C421.819 222.441 411.524 222.188 415.225 215.071L415.235 211.156C415.235 211.156 412.133 211.646 410.62 211.403C408.102 210.998 406.518 208.929 405.754 206.09C404.527 201.531 404.061 197.849 405.102 188.883C406.243 179.055 417.218 178.953 423.144 182.838C429.072 186.724 426.812 197.47 426.812 197.47Z" fill="#FFA8A7"/>
<path d="M413.131 187.349C415.753 187.087 418.345 186.554 420.972 186.36C421.541 186.318 422.122 186.293 422.673 186.442C424.686 186.986 424.426 189.326 424.746 190.961C425.296 193.776 425.753 198.548 426.812 198.569C427.127 198.575 428.326 196.504 429.106 195.764C429.611 195.285 429.697 194.252 429.806 193.613C430.006 192.446 430.114 191.263 430.203 190.084C430.279 189.086 430.379 188.07 430.375 187.068C430.37 185.944 430.392 184.8 430.113 183.702C429.859 182.705 429.393 181.959 428.711 181.182C428.645 181.107 428.578 181.033 428.511 180.96C427.218 179.566 425.569 178.521 423.818 177.799C421.305 176.763 418.582 176.35 415.878 176.073C413.174 175.796 410.449 175.646 407.786 175.098C407.631 175.066 407.465 175.034 407.317 175.09C407.085 175.179 406.984 175.448 406.937 175.691C406.702 176.925 407.257 178.275 408.294 178.986C406.482 179.13 404.402 178.186 402.656 177.713C402.362 177.633 402.028 177.558 401.767 177.716C401.587 177.825 401.481 178.025 401.417 178.225C401.269 178.689 401.302 179.19 401.368 179.673C401.563 181.1 402.049 182.51 402.929 183.65C404.195 185.291 406.279 186.771 408.334 187.183C409.957 187.51 411.472 187.514 413.131 187.349Z" fill="#263238"/>
<path d="M415.234 211.157C415.234 211.157 420.854 209.978 422.819 208.89C424.134 208.162 425.217 206.9 425.535 206.091C425.535 206.091 425.167 207.828 423.992 209.392C422.555 211.305 415.234 212.714 415.234 212.714V211.157Z" fill="#F28F8F"/>
<path d="M416.588 196.007C416.588 196.68 417.093 197.224 417.714 197.223C418.336 197.221 418.84 196.674 418.84 196.001C418.84 195.328 418.336 194.784 417.714 194.785C417.093 194.787 416.588 195.334 416.588 196.007Z" fill="#263238"/>
<path d="M418.396 191.15L420.806 192.535C421.161 191.814 420.911 190.919 420.245 190.537C419.579 190.155 418.751 190.429 418.396 191.15Z" fill="#263238"/>
<path d="M415.745 204.11L413.174 205.115C413.428 205.883 414.21 206.28 414.92 206.002C415.631 205.725 416 204.878 415.745 204.11Z" fill="#F28F8F"/>
<path d="M406.255 192.182L408.452 190.42C408.004 189.765 407.149 189.628 406.542 190.115C405.936 190.601 405.807 191.527 406.255 192.182Z" fill="#263238"/>
<path d="M407.221 195.673C407.221 196.346 407.725 196.89 408.347 196.888C408.969 196.886 409.473 196.339 409.473 195.666C409.473 194.993 408.969 194.449 408.347 194.45C407.725 194.453 407.221 195 407.221 195.673Z" fill="#263238"/>
<path d="M413.248 194.731L413.117 201.845L409.08 200.919L413.248 194.731Z" fill="#F28F8F"/>
<path d="M317.314 254.276L323.578 250.66L326.061 247.653L319.797 251.27L317.314 254.276Z" fill="#165DEE"/>
<path opacity="0.4" d="M317.314 254.276L323.578 250.66L326.061 247.653L319.797 251.27L317.314 254.276Z" fill="black"/>
<path d="M334.361 264.118L340.625 260.502L345.861 255.868L339.596 259.484L334.361 264.118Z" fill="#165DEE"/>
<path opacity="0.4" d="M334.361 264.118L340.625 260.502L345.861 255.868L339.596 259.484L334.361 264.118Z" fill="black"/>
<path d="M387.624 276.615C388.997 278.362 389.999 280.929 390.214 283.432C388.84 281.685 387.839 279.118 387.624 276.615ZM402.187 276.804C400.08 262.452 392.369 248.255 383.178 242.95C378.768 240.4 374.686 240.308 371.417 242.22C370.461 242.775 366.914 244.821 365.516 245.623C365.403 245.685 365.29 245.746 365.187 245.818C364.93 245.962 364.673 246.126 364.426 246.301C363.953 246.63 363.501 247 363.069 247.422C363.007 247.473 362.945 247.545 362.874 247.607C362.689 247.792 362.504 247.998 362.329 248.203C362.113 248.45 361.897 248.707 361.702 248.974C361.291 249.519 360.9 250.105 360.551 250.742C360.376 251.05 360.201 251.379 360.037 251.719L308.521 221.978L302.26 225.586V229.575L302.794 229.883L303.288 230.171V231.014L302.26 231.61V233.933L309.826 249.95L317.31 254.278L319.798 251.266L326.398 255.214L330.191 261.711L334.365 264.117L339.598 259.481L346.023 263.192L348.182 272.095L358.946 278.305C359.491 280.587 360.18 282.818 360.982 284.998C361.054 285.224 361.136 285.45 361.229 285.697C364.807 295.104 370.502 303.153 376.917 306.864C377.74 307.337 378.541 307.728 379.333 308.026C379.786 308.211 380.238 308.355 380.68 308.478C381.081 308.591 381.482 308.684 381.883 308.745C383.209 308.981 384.494 308.971 385.697 308.735C385.872 308.694 386.047 308.653 386.221 308.612C386.468 308.561 386.714 308.489 386.951 308.396C387.136 308.324 387.321 308.252 387.506 308.18C387.701 308.108 387.897 308.015 388.082 307.913C388.267 307.831 388.442 307.738 388.617 307.635C388.709 307.584 388.802 307.532 388.884 307.481C388.925 307.471 388.966 307.44 389.008 307.409C390.437 306.587 393.963 304.551 394.919 304.006C399.679 301.251 402.763 294.27 402.763 284.401C402.762 281.893 402.567 279.344 402.187 276.804Z" fill="#165DEE"/>
<path d="M385.788 288.721C383.317 287.294 381.313 283.053 381.313 279.248C381.313 275.443 383.317 273.515 385.788 274.942C388.259 276.369 390.263 280.61 390.263 284.415C390.262 288.22 388.259 290.148 385.788 288.721ZM395.927 280.413C393.82 266.072 386.109 251.874 376.918 246.57C372.662 244.113 368.725 243.928 365.517 245.624C365.404 245.686 365.291 245.747 365.188 245.819C364.931 245.963 364.674 246.127 364.427 246.302C363.954 246.631 363.502 247.001 363.07 247.423C363.008 247.474 362.946 247.546 362.875 247.608C362.69 247.793 362.505 247.999 362.33 248.204C362.114 248.451 361.898 248.708 361.703 248.975C361.292 249.52 360.901 250.106 360.552 250.743C360.377 251.051 360.202 251.38 360.038 251.72C359.185 253.468 358.506 255.503 358.054 257.806L302.262 225.587V229.576L302.796 229.884L303.29 230.172V231.015L302.262 231.611V233.934L309.828 249.951L317.312 254.279L319.8 251.267L326.4 255.215L330.193 261.712L334.367 264.118L339.6 259.482L346.025 263.193L348.184 272.096L358.948 278.306C359.493 280.588 360.182 282.819 360.984 284.999C361.056 285.225 361.138 285.451 361.231 285.698C364.809 295.105 370.504 303.154 376.919 306.865C377.742 307.338 378.543 307.729 379.335 308.027C379.788 308.212 380.24 308.356 380.682 308.479C381.083 308.592 381.484 308.685 381.885 308.746C383.211 308.982 384.496 308.972 385.699 308.736C385.874 308.695 386.049 308.654 386.223 308.613C386.47 308.562 386.716 308.49 386.953 308.397C387.138 308.325 387.323 308.253 387.508 308.181C387.703 308.109 387.899 308.016 388.084 307.914C388.269 307.832 388.444 307.739 388.619 307.636C388.711 307.585 388.804 307.533 388.886 307.482C388.927 307.472 388.968 307.441 389.01 307.41C393.574 304.532 396.505 297.654 396.505 288.021C396.503 285.512 396.297 282.962 395.927 280.413Z" fill="#165DEE"/>
<path opacity="0.4" d="M390.261 284.412C390.261 288.216 388.256 290.149 385.789 288.72C383.311 287.291 381.307 283.055 381.307 279.252C381.307 275.449 383.312 273.516 385.789 274.945C386.447 275.325 387.074 275.901 387.619 276.621C387.835 279.119 388.842 281.689 390.21 283.437C390.251 283.764 390.261 284.093 390.261 284.412Z" fill="black"/>
<path opacity="0.4" d="M402.762 284.402C402.762 294.271 399.678 301.252 394.918 304.007C393.962 304.552 390.436 306.587 389.007 307.41C393.571 304.532 396.502 297.654 396.502 288.021C396.502 285.513 396.296 282.963 395.926 280.414C393.819 266.073 386.108 251.875 376.917 246.571C372.661 244.114 368.724 243.929 365.516 245.625C366.914 244.823 370.461 242.777 371.417 242.222C374.686 240.31 378.768 240.402 383.178 242.952C392.369 248.257 400.079 262.454 402.187 276.806C402.567 279.344 402.762 281.893 402.762 284.402Z" fill="white"/>
<path d="M396.501 288.02C396.501 297.653 393.571 304.531 389.006 307.409C390.435 306.587 393.961 304.551 394.917 304.006C399.677 301.251 402.761 294.27 402.761 284.401C402.761 284.037 402.748 283.67 402.74 283.304C400.589 284.546 398.414 285.801 396.478 286.919C396.487 287.287 396.501 287.655 396.501 288.02Z" fill="#165DEE"/>
<path opacity="0.1" d="M396.501 288.02C396.501 297.653 393.571 304.531 389.006 307.409C390.435 306.587 393.961 304.551 394.917 304.006C399.677 301.251 402.761 294.27 402.761 284.401C402.761 284.037 402.748 283.67 402.74 283.304C400.589 284.546 398.414 285.801 396.478 286.919C396.487 287.287 396.501 287.655 396.501 288.02Z" fill="black"/>
<path opacity="0.15" d="M358.28 261.918V263.954L302.262 231.611L303.29 231.015V230.172L358.28 261.918Z" fill="black"/>
<path opacity="0.15" d="M358.28 262.761V263.954L302.262 231.611L303.29 231.015V231.005L358.28 262.761Z" fill="black"/>
<path opacity="0.15" d="M385.034 303.189C392.843 300.792 395.538 287.002 391.053 272.389C386.569 257.775 376.602 247.872 368.793 250.268C360.983 252.665 358.288 266.455 362.773 281.068C367.258 295.682 377.225 305.585 385.034 303.189Z" stroke="black" stroke-miterlimit="10"/>
<path opacity="0.4" d="M360.038 251.72C359.185 253.468 358.506 255.503 358.054 257.806L302.262 225.587L308.523 221.979L360.038 251.72Z" fill="white"/>
<path d="M432.506 254.853C435.432 249.32 438.767 236.9 440.428 230.632C442.787 221.729 438.969 216.127 434.635 215.902C431.917 216.316 422.993 248.791 422.993 248.791C422.004 249.582 408.421 256.465 404.057 258.195C403.284 258.502 402.423 258.489 401.641 258.204C399.545 257.439 398.118 257.584 396.067 257.378C394.461 257.217 393.648 256.646 393.445 256.99C393.185 257.432 393.064 258.535 394.233 259.357C394.821 259.771 395.792 260.14 397.031 260.579C397.031 260.579 394.711 261.383 391.616 261.315C387.421 261.222 385.911 263.045 389.165 267.297C391.204 269.961 394.482 270.801 401.865 268.248C403.992 267.512 406.874 266.082 409.556 265.108C415.102 263.093 416.526 262.875 420.783 261.442C426.926 259.373 431.207 257.308 432.506 254.853Z" fill="#FFA8A7"/>
<path d="M432.99 215.059C435.542 215.408 438.016 215.985 439.5 218.047C440.984 220.109 442.221 223.017 440.737 231.005C439.253 238.993 436.2 247.479 436.2 247.479C436.2 247.479 430.264 250.016 423.949 243.58L428.285 226.801C428.285 226.801 429.027 215.901 432.99 215.059Z" fill="#455A64"/>
</svg>
